<svg width="148" height="148" viewBox="0 0 148 148" fill="none" xmlns="http://www.w3.org/2000/svg">
<circle cx="74" cy="74" r="74" fill="#128C7E"/>
<path fill-rule="evenodd" clip-rule="evenodd" d="M75.2653 28C86.7591 28.0556 97.8512 32.5781 106.148 40.5488C114.645 48.7121 119.542 59.658 119.97 71.4457C120.388 82.9575 116.378 94.2654 108.772 102.901C100.429 112.373 88.8242 117.813 76.2906 118.173C75.8617 118.186 75.4326 118.192 75.0035 118.192C68.25 118.192 61.5595 116.665 55.4993 113.743L31.9444 118.994C31.8904 119.004 31.8348 119.002 31.782 118.986C31.7292 118.971 31.6809 118.943 31.6409 118.906C31.6009 118.868 31.5705 118.821 31.5521 118.769C31.5338 118.717 31.528 118.662 31.5353 118.607L35.5144 94.7389C32.1186 88.521 30.2233 81.5154 30.019 74.3891C29.6745 62.3483 34.0294 50.894 42.2818 42.1358C50.8379 33.0551 62.5222 28 75.0424 28H75.2653ZM75.0146 35.8247C74.6545 35.8247 74.2943 35.8299 73.9343 35.8402C53.435 36.4295 37.2358 53.6219 37.8239 74.1649C38.0037 80.4375 39.7671 86.5947 42.9237 91.9708L43.6088 93.1364L40.6605 109.333L56.6541 105.549L57.8619 106.179C63.1316 108.927 69.0365 110.367 75.0024 110.367C75.3568 110.367 75.712 110.362 76.0664 110.352C96.5662 109.762 112.765 92.5705 112.177 72.0275C111.599 51.8468 95.0325 35.8247 75.0146 35.8247ZM59.4575 51.3114C60.2095 51.3349 60.9631 51.3563 61.6204 51.4047C62.4239 51.4622 63.3134 51.5277 64.1014 53.4398C65.0368 55.7101 67.0596 61.3784 67.3246 61.9534C67.5895 62.5284 67.7574 63.1955 67.3578 63.94C66.9582 64.6837 66.7555 65.15 66.1718 65.7937C65.5873 66.4378 64.9398 67.2335 64.4171 67.7248C63.8333 68.2721 63.2267 68.8677 63.8508 70.0206C64.4745 71.1746 66.6268 74.9515 69.8919 78.0568C74.088 82.0476 77.4529 83.3643 78.7894 83.989C79.2717 84.2148 79.6725 84.3215 80.0226 84.3215C80.5033 84.3215 80.8878 84.1199 81.2549 83.7469C81.9582 83.033 84.0745 80.5582 84.9655 79.4196C85.4316 78.8239 85.8538 78.6128 86.312 78.6128C86.6787 78.6128 87.0687 78.7481 87.5242 78.9299C88.5474 79.3399 94.0147 82.2504 95.1267 82.8516C96.2387 83.4524 96.9824 83.7592 97.2505 84.2394C97.5182 84.7219 97.4485 86.9884 96.4264 89.6036C95.4043 92.2193 90.7164 94.6282 88.6401 94.7528C88.0322 94.7893 87.4343 94.8746 86.6561 94.8746C84.7747 94.8746 81.841 94.3781 75.1774 91.5022C63.8393 86.6094 56.9543 74.5864 56.4125 73.8141C55.872 73.0406 51.9903 67.5315 52.161 61.959C52.3317 56.3872 55.333 53.737 56.403 52.6357C57.4287 51.5797 58.604 51.3099 59.3628 51.3099L59.4575 51.3114Z" fill="#FBFCFC"/>
</svg>
