<?xml version="1.0" encoding="utf-8"?>
<!-- Generator: Adobe Illustrator 24.0.2, SVG Export Plug-In . SVG Version: 6.00 Build 0)  -->
<svg version="1.1"
	 id="svg8" xmlns:cc="http://creativecommons.org/ns#" xmlns:dc="http://purl.org/dc/elements/1.1/" xmlns:rdf="http://www.w3.org/1999/02/22-rdf-syntax-ns#" xmlns:svg="http://www.w3.org/2000/svg"
	 xmlns="http://www.w3.org/2000/svg" xmlns:xlink="http://www.w3.org/1999/xlink" x="0px" y="0px" viewBox="0 0 595.3 567.8"
	 style="enable-background:new 0 0 595.3 567.8;" xml:space="preserve">
<style type="text/css">
	.st0{fill:#133931;}
</style>
<g id="layer1">
	<path id="path826-8" class="st0" d="M380.4,18.3c-0.9,0-1.8,0-2.6,0c-14.2,0.6-24.9,4.7-33.2,10.1s-18.3,15.4-33.8,15.1
		s-32-3.7-44.8-4.3c-12.9-0.7-21.6-3.2-33.8,3.4c-12.2,6.7-48.3,29.5-56.7,34.3c-8.4,4.8-13.2,5.4-27.7,9.8
		c-14.5,4.3-25.6,17.9-29.3,25.9c-3.7,8-6,18.8-2.9,26c1.1,2.3,2.8,4.7-3.8,4.8c-6.5,0.1-24,8-25.9,19.6
		c-1.9,11.7,2.7,36.1-1.3,39.2s-13.2,8.9-28.1,12s-15.4,16.9-12.2,24.7c3.2,7.9,2.6,9,5.9,8.3c3.3-0.7,19.5-3.9,24.3,2.4
		c4.8,6.3,3.3,15.3,5.9,16.1c2.6,0.8,20.5,5.1,21.5,7.5s-1.1,6.7,2.8,5.4c3.9-1.2,10.1-5.8,11.1-7s1.2-3.1-3-3.9s-0.3-4.8,2.1-6.3
		c2.4-1.6,6.4-6,12.9-3.4c6.4,2.6,40.4,16.6,59.8,24.2s29.7,12.5,31.7,10.3s10.4-15.5,34.6-13.5s37.1,22,40.5,27.2
		s13.7,25.3,0.8,42.1c-17.8,20.8-56.7,20.2-58.8,21.4c-2.1,1.1-1.2,3.3,0,3.3h128.9c1.9,0,2-5.5-2.5-5.5h-15.1c0,0-21-0.1-23.3-21.4
		s2.1-32.8,3.2-34.8s10.1-23.2,33.6-39.9c4.9-2.8,8.1-3.3,11.1,1.1s6.5,10.9,11.2,8.3s12.2-9.1,16.2-15.2s10.8-10.2,17-5.7
		c6.2,4.5,5.7,5.1,9.2,6.2c3.6,1.1,6.9,2.4,6.4,9.2c-0.4,6.8-3.1,21.7-0.4,23.6s16.6,3,24,0.9c7.3-2.1,7.9-5.8,12.8-9.9
		s15.1-10.7,21.2-8.2c6.1,2.4,34,3.8,47.4-1s29.1-10.9,31.8-28.4c2.8-17.5-5-33.8-7-36.6s-3.8-3.1-8.5-3.2
		c-4.8-0.1-10.1-8.7-8.8-11.5c1.3-2.9,6-7.2,1.2-10.8s-14.9-8.4-18.8-10.2c-3.9-1.8-12.2-2.3-6.4-4.7c5.8-2.3,15.5-3.6,7.9-8.5
		c-7.7-5-21.2-17.3-29.3-41.2c-8.1-23.9-16.8-45.6-30.6-55.4c-13.9-9.8-36.9-26.7-50.8-35.4C404.8,26.6,393.5,18.8,380.4,18.3
		L380.4,18.3z M156.4,251.5c2.9,0,16.6,9.6,16.5,11.7c-0.1,2.2-3-0.1-5.1-1.7s-5.6-3.9-7.9-1.7c-2.3,2.2-3.6,4.4-3.9,2.9
		c0,0-1.4-9.7,0.1-11.1C156,251.5,156.2,251.5,156.4,251.5L156.4,251.5z M190.3,255.9c1.1,0,1.3,1.9,1.3,1.9s1.6,7.6,3,10.9
		s-1.1,3.4-2.8,3.4s-10.2-0.4-10.2-0.4c-5.8,0.3-1.8-3.4-1.8-3.4s5.5-6.9,8.5-10.8C189.2,256.4,189.9,255.9,190.3,255.9L190.3,255.9
		z M307.4,258.1c0.2,0,0.3,0.1,0.6,0.1c3.2,1,7,2.9,7,2.9s2.5,1.2,5.8,4.3c3.3,3.1-2.4,4.7-7.5,5.7c-5.2,1-5.6-3.5-6.4-6.2
		C306.2,262.4,304.9,257.8,307.4,258.1L307.4,258.1z M274.8,258.3c0.9,0,1.8,0.2,2.6,0.4c4.5-0.1,4.4,0.4,4.3,2.1s1.9,4.2,4.4,6.8
		c2.5,2.7,0.6,4.7-1.4,5.3c-2,0.5-9.4-4.4-12.2-6.7c-2.8-2.4-1.2-5.6,0-7C273.1,258.6,274,258.4,274.8,258.3L274.8,258.3z
		 M332.9,272.5c0.4,0,0.8,0.1,1.3,0.1c3.5,0.5,6.3,7.3,6.3,7.3c0.2,1-1.9,2-3.1,3.4c-1.2,1.3-9.6,11.5-12.4,15.5
		c-2.8,3.9-2.8-3.1-2.4-8.9c0.4-5.9,1.6-7.8,3.7-12.5C328.1,273.3,330,272.3,332.9,272.5L332.9,272.5z"/>
	<path id="rect852-3" class="st0" d="M124.5,425.9c-1,0-1.8,1.3-1.8,2.9s0.8,2.9,1.8,2.9h3.2v36h-3.5c-0.9,0-1.6,1.2-1.6,2.6
		s0.7,2.6,1.6,2.6h35.2c0.7,0,1.3-0.7,1.5-1.7l1.8-11.8c0.1-0.5-1.3-1-2.8-1.1c-1.6,0-2.6,0.5-2.9,1l-4,8.4h-14.4v-15h14.6
		c0.9,0,1.6-1.5,1.6-3.3s-0.7-3.3-1.6-3.3h-14.6v-14.4h13.6l3.8,7.8c0.2,0.5,1.3,1,2.9,1c1.6,0,3-0.5,2.8-1.1l-1.6-11.4
		c0-0.2-0.1-0.4-0.1-0.5v-0.1l0,0c-0.3-0.9-0.9-1.5-1.6-1.5H124.5z"/>
	<path id="rect852-5-4-3" class="st0" d="M186.7,426.1c-0.5,0-0.9,1.2-0.9,2.6s0.4,2.6,0.9,2.6h3.4v36.3h-4c-0.9,0-1.6,1.2-1.6,2.6
		s0.7,2.6,1.6,2.6h34c0.7,0,1.3-0.7,1.5-1.7l2.6-12.4c0.1-0.5-1.3-1-2.8-1.1c-1.6,0-2.6,0.5-2.9,1l-3.7,9H201v-36.3h5.7
		c0.5,0,0.9-1.2,0.9-2.6s-0.4-2.6-0.9-2.6H186.7z"/>
	<path id="rect852-5-4-6-13" class="st0" d="M333.9,426.1c-0.8,0-1.5,1.2-1.5,2.6s0.7,2.6,1.5,2.6h3.7v36.9h-3.7
		c-0.8,0-1.5,1.2-1.5,2.6s0.7,2.6,1.5,2.6h17.4c0.8,0,1.5-1.2,1.5-2.6s-0.7-2.6-1.5-2.6h-2.9v-36.9h2.9c0.8,0,1.5-1.2,1.5-2.6
		s-0.7-2.6-1.5-2.6H333.9z"/>
	<path id="rect852-5-4-6-1-8" class="st0" d="M442.2,426.1c-0.8,0-1.5,1.2-1.5,2.6s0.7,2.6,1.5,2.6h3.7v36.9h-3.7
		c-0.8,0-1.5,1.2-1.5,2.6s0.7,2.6,1.5,2.6h17.4c0.8,0,1.5-1.2,1.5-2.6s-0.7-2.6-1.5-2.6h-2.9v-15.6h17.2v15.6h-3.7
		c-0.8,0-1.5,1.2-1.5,2.6s0.7,2.6,1.5,2.6h17.4c0.8,0,1.5-1.2,1.5-2.6s-0.7-2.6-1.5-2.6h-2.9v-36.9h2.9c0.8,0,1.5-1.2,1.5-2.6
		s-0.7-2.6-1.5-2.6h-17.4c-0.8,0-1.5,1.2-1.5,2.6s0.7,2.6,1.5,2.6h3.7V446h-17.2v-14.7h2.9c0.8,0,1.5-1.2,1.5-2.6s-0.7-2.6-1.5-2.6
		L442.2,426.1L442.2,426.1z"/>
	<path id="rect852-5-4-6-0-8" class="st0" d="M271.5,426.1c-0.8,0-1.5,1.2-1.5,2.6s0.7,2.6,1.5,2.6h3.7v36.9h-3.7
		c-0.8,0-1.5,1.2-1.5,2.6s0.7,2.6,1.5,2.6h17.4c0.8,0,1.5-1.2,1.5-2.6s-0.7-2.6-1.5-2.6H286v-10.5h8.8c10.4,0,13.8-8.2,13.8-8.2
		s4.1-5.7,1.6-13.5s-8.2-9.9-13.6-9.9h-7.7l0,0H271.5z M286,432.4h7.7c0.6,0,5.8,1.2,5.8,9.8c0,8.6-5.2,10-6.4,10H286V432.4z"/>
	<path id="rect852-3-7-5" class="st0" d="M401.6,425.6c-11.1,0-17.4,6.8-18.3,7.7c-1,0.9-9.4,9.8-5.6,24.4
		c3.8,14.7,18.8,16.1,25,16.4c6.3,0.2,12.2-2.7,12.2-2.7l0,0c1.9-0.8,1.7-2.5,3.1-11.8c0.2-1.1-1.2-1.3-2.8-1.4
		c-1.6,0-2.6,0.5-2.9,1l-3.8,7.9c-11.1,3.2-16.4-3.9-18.4-7.2c-1.8-2.9-2.6-8.9-1.2-17.7c1.5-8.7,8.8-11,12.8-11.3
		c3.9-0.3,5.8,1,5.8,1l4,8.4c0.3,0.5,1.4,1.1,3,1c1.7,0,3.2-0.5,3-1.1c-1-3.9-1.9-8-3-11.9l0,0C414.3,428.1,412.1,425.6,401.6,425.6
		L401.6,425.6z"/>
	<path id="path929-2" class="st0" d="M148.3,542.3h5.2c5.6,0,9-3.2,9-9.5c0-6.2-3.4-9.3-9.1-9.3h-5L148.3,542.3L148.3,542.3z
		 M151.6,539.6v-13.4h1.5c3.8,0,5.9,2,5.9,6.6s-2.2,6.8-5.9,6.8L151.6,539.6L151.6,539.6z"/>
	<path id="path931-4" class="st0" d="M175.1,542.3h11.6v-2.8h-8.3V534h6.8v-2.8h-6.8v-4.8h8v-2.8h-11.3V542.3z"/>
	<path id="path933-3" class="st0" d="M198.8,542.3h3.3v-6.9h2.7c4.1,0,7.2-1.9,7.2-6.1c0-4.4-3.1-5.8-7.3-5.8h-5.9V542.3z
		 M202.2,532.7v-6.6h2.3c2.8,0,4.3,0.8,4.3,3.1s-1.4,3.4-4.1,3.4L202.2,532.7z"/>
	<path id="path935-8" class="st0" d="M226.2,532.3c0.6-2,1.1-4.1,1.7-6.2h0.1c0.5,2.1,1.1,4.2,1.7,6.2l0.7,2.3h-4.8L226.2,532.3z
		 M219.9,542.3h3.4l1.5-5.1h6.3l1.5,5.1h3.5l-6.1-18.8h-4L219.9,542.3z"/>
	<path id="path937-8" class="st0" d="M246.9,542.3h3.3v-7.4h2.9l4.1,7.4h3.7l-4.5-7.8c2.2-0.8,3.7-2.5,3.7-5.4c0-4.2-3-5.6-6.9-5.6
		h-6.4L246.9,542.3z M250.3,532.3v-6.1h2.7c2.6,0,4,0.7,4,2.9c0,2.1-1.4,3.2-4,3.2L250.3,532.3L250.3,532.3z"/>
	<path id="path939-1" class="st0" d="M275.3,542.3h3.3v-16h5.4v-2.8h-14.2v2.8h5.4v16H275.3z"/>
	<path id="path941-6" class="st0" d="M296.8,532.3c0.6-2,1.1-4.1,1.7-6.2h0.1c0.5,2.1,1.1,4.2,1.7,6.2l0.7,2.3h-4.8L296.8,532.3z
		 M290.5,542.3h3.4l1.5-5.1h6.3l1.5,5.1h3.5l-6.1-18.8h-3.9L290.5,542.3z"/>
	<path id="path943-3" class="st0" d="M318.7,542.3h3v-8.6c0-1.8-0.3-4.3-0.4-6h0.1l1.5,4.4l3.1,8.4h2l3.1-8.4l1.5-4.4h0.1
		c-0.2,1.7-0.4,4.2-0.4,6v8.6h3.1v-18.8h-3.8l-3.2,9.2c-0.4,1.2-0.8,2.4-1.2,3.7H327c-0.4-1.2-0.8-2.5-1.2-3.7l-3.3-9.2h-3.8V542.3z
		"/>
	<path id="path945-0" class="st0" d="M347.6,542.3h11.6v-2.8h-8.3V534h6.8v-2.8h-6.8v-4.8h8v-2.8h-11.3L347.6,542.3z"/>
	<path id="path947-5" class="st0" d="M372,542.3h3.2v-8.2c0-2.1-0.3-4.4-0.4-6.4h0.1l1.9,4l5.9,10.6h3.4v-18.8h-3.2v8.2
		c0,2.1,0.3,4.5,0.4,6.4h-0.1l-1.9-4l-5.9-10.6H372V542.3z"/>
	<path id="path949-8" class="st0" d="M402.1,542.3h3.3v-16h5.4v-2.8h-14.2v2.8h5.4L402.1,542.3z"/>
	<path id="path951-4" class="st0" d="M426.5,542.6c4.9,0,9.8-3.7,9.8-9.8s-4.9-9.7-9.8-9.7s-9.1,3.6-9.1,9.7
		S421.6,542.6,426.5,542.6z M426.5,539.7c-3,0-5.6-2.7-5.6-6.9s2.7-6.8,5.6-6.8s6.3,2.6,6.3,6.8S429.4,539.7,426.5,539.7z"/>
	<path id="path953-7" class="st0" d="M451.1,542.6c4.2,0,6.8-2.5,6.8-5.6c0-2.7-1.6-4.1-3.8-5.1l-2.6-1.1c-1.6-0.6-3-1.2-3-2.6
		c0-1.4,1.2-2.2,3-2.2c1.6,0,2.9,0.6,4.1,1.6l1.7-2.1c-1.5-1.5-3.6-2.4-5.8-2.4c-3.7,0-6.3,2.3-6.3,5.3c0,2.8,2,4.2,3.8,5l2.6,1.1
		c1.7,0.7,2.9,1.2,2.9,2.8c0,1.5-1.1,2.4-3.3,2.4c-1.7,0-3.5-0.9-4.9-2.1l-2,2.3C446.1,541.6,448.5,542.6,451.1,542.6z"/>
</g>
</svg>
