<?xml version="1.0" encoding="utf-8"?>
<!-- Generator: Adobe Illustrator 24.0.2, SVG Export Plug-In . SVG Version: 6.00 Build 0)  -->
<svg version="1.1" id="Capa_1" xmlns="http://www.w3.org/2000/svg" xmlns:xlink="http://www.w3.org/1999/xlink" x="0px" y="0px"
	 viewBox="0 0 100 100" style="enable-background:new 0 0 100 100;" xml:space="preserve">
<style type="text/css">
	.st0{fill:#F9C61F;}
	.st1{fill:#F9C620;}
	.st2{fill:#FEFEFE;}
</style>
<g>
	<path class="st0" d="M48.9,78.5c-9.9,0-19.8,0-29.7,0c-0.7,0-0.6,0.1-0.6-0.6c0-1.4,0-2.8,0-4.3c0-0.3,0.1-0.4,0.4-0.4
		c0.9,0,0.9,0,0.9-0.9c0-2.7,0-5.4,0-8.1c0-9.9,0-19.7,0-29.6c0-0.5,0-0.9,0-1.4c0-0.7,0.4-1.2,1.1-1.2c0.5-0.1,1,0,1.5,0
		c0.9,0,1.8,0,2.7,0c0.5,0,0.9,0,1.4,0c0.7,0,0.9-0.2,0.9-0.9c0-1.3,0-2.5,0-3.8c0-0.9,0.5-1.4,1.4-1.4c0.4,0,0.8,0.2,1-0.1
		c0.2-0.2,0.1-0.7,0.1-1c0-1,0-1,1-1c0.6,0,1.2,0,1.8,0c0.3,0,0.5,0.1,0.4,0.4c0,0.4,0,0.9,0,1.3c0,0.3,0.1,0.4,0.3,0.3
		c0.1,0,0.2,0,0.3,0c11.6,0,23.3,0,34.9,0c0.4,0,0.8,0,1.1,0.3c0.3,0.3,0.4,0.6,0.4,1c0,1.3,0,2.5,0,3.8c0,0.8,0.2,1,1,1
		c0.9,0,1.8,0.1,2.8,0c0.9-0.1,1.8,0,2.6,0c0.8,0,1.2,0.5,1.2,1.2c0,0.4,0,0.9,0,1.3c0,9.5,0,19,0,28.5c0,3.3,0,6.6,0,9.9
		c0,0.3,0.1,0.4,0.4,0.4c0.9,0,0.9,0,0.9,1c0,1.3,0,2.5,0,3.8c0,0.4-0.1,0.5-0.5,0.5c-5.4,0-10.8,0-16.2,0
		C58,78.5,53.4,78.5,48.9,78.5z"/>
	<path class="st0" d="M31.6,17.9c0.6,0,1.3,0,1.9,0.2c0.7,0.2,1.1,0.6,1.2,1.4c0.1,0.8,0,1.5-0.8,1.9c-0.1,0.1-0.3,0.2-0.4,0.3
		c-0.6,0.3-1,0.8-0.9,1.5c0,0.2-0.1,0.3-0.3,0.3c-0.5,0-0.9,0-1.4,0c-0.2,0-0.3-0.1-0.3-0.3c0.1-0.7-0.3-1.2-0.9-1.5
		c-0.1-0.1-0.3-0.2-0.4-0.3c-0.7-0.4-0.9-1.1-0.8-1.9c0.1-0.7,0.5-1.2,1.2-1.4C30.4,18,31,17.9,31.6,17.9z"/>
	<path class="st0" d="M73.8,29.9c0.5,0,0.9,0,1.4,0c0.2,0,0.3,0.1,0.3,0.3c0,0.4,0,0.8,0,1.2c0,0.2-0.1,0.3-0.3,0.3
		c-1,0-1.9,0-2.9,0c-0.2,0-0.2-0.1-0.3-0.3c-0.1-1.5-0.1-1.5,1.3-1.5C73.5,29.9,73.7,29.9,73.8,29.9L73.8,29.9z"/>
	<path class="st1" d="M23.9,29.9c0.5,0,0.9,0,1.4,0c0.2,0,0.3,0.1,0.3,0.3c0,0.4,0,0.8,0,1.2c0,0.2-0.1,0.3-0.3,0.3
		c-0.9,0-1.9,0-2.8,0c-0.2,0-0.3-0.1-0.3-0.3c0-0.4,0-0.8,0-1.3c0-0.2,0.1-0.2,0.3-0.2C23,29.9,23.5,29.9,23.9,29.9L23.9,29.9z"/>
	<path class="st2" d="M48.9,73.2c-7.9,0-15.8,0-23.7,0c-0.4,0-0.5-0.1-0.5-0.5c0-3.2,0-6.3,0-9.5c0-9.2,0-18.5,0-27.7
		c0-0.4,0.1-0.5,0.5-0.5c1,0,2,0,3.1,0c0.6,0,1.1-0.2,1.5-0.7c0.7-0.8,1.2-1.6,1.7-2.5c0.3-0.5,0.7-1,1-1.4c0.4-0.5,0.8-0.7,1.4-0.7
		c2.3,0,4.6,0,6.9,0c3.4,0,6.8,0,10.2,0c4.1,0,8.2,0,12.3,0c1.1,0,1.8,0.4,2.3,1.2c0.6,1,1.3,1.9,1.9,2.9c0.6,0.8,1.3,1.3,2.3,1.2
		c0.9-0.1,1.8,0,2.8,0c0.3,0,0.4,0.1,0.4,0.4c0,1.5,0,3,0,4.5c0,7.3,0,14.6,0,21.9c0,3.6,0,7.2,0,10.8c0,0.6,0.1,0.6-0.5,0.6
		C64.7,73.2,56.8,73.2,48.9,73.2z"/>
	<path class="st0" d="M48.9,51c-3.4,0-6.7,0-10.1,0c-3.1,0-6.3,0-9.4,0c-0.4,0-0.5,0-0.5-0.5c-0.1-3.2,0-6.4,0-9.6
		c0-2.2,1.3-4,3.3-4.6c0.4-0.1,0.8-0.2,1.2-0.2c3.5,0,7.1,0,10.6,0c2.1,0,3.9,1.4,4.4,3.5c0.1,0.3,0.2,0.4,0.5,0.4
		c5.4,0,10.9,0,16.3,0c1.9,0,3.6,1.4,3.6,3.6c0,1.6,0,3.2,0,4.9c0,0.7,0,1.4,0,2.1c0,0.3-0.1,0.4-0.4,0.4c-3.5,0-7,0-10.5,0
		C55,51,51.9,51.1,48.9,51L48.9,51z"/>
	<path class="st0" d="M48.8,57.3c-7.6,0-15.1,0-22.7,0c-0.6,0-0.6,0-0.6-0.6c0-4.3,0-8.5,0-12.8c0-0.4,0.1-0.5,0.5-0.5
		c0.5,0,1,0,1.4,0c0.3,0,0.4,0.1,0.4,0.4c0,2.5,0,5,0,7.5c0,0.4,0.1,0.5,0.5,0.5c13.6,0,27.2,0,40.8,0c0.4,0,0.5-0.1,0.5-0.5
		c0-2.5,0-5,0-7.5c0-0.3,0.1-0.5,0.4-0.4c0.5,0,1,0,1.5,0c0.4,0,0.4,0.1,0.4,0.4c0,4.1,0,8.2,0,12.3c0,1.1,0,1.1-1,1.1
		C63.7,57.3,56.3,57.3,48.8,57.3z"/>
	<path class="st0" d="M48.8,72c-7.6,0-15.1,0-22.7,0c-0.6,0-0.5,0.1-0.5-0.5c0-0.8,0-1.5,0-2.3c0-0.4,0.1-0.5,0.5-0.5
		c3.4,0,6.9,0,10.3,0c11.7,0,23.5,0,35.2,0c0.4,0,0.6,0.1,0.5,0.5c0,0.8,0,1.6,0,2.4c0,0.4-0.1,0.5-0.5,0.5c-2.9,0-5.8,0-8.6,0
		C58.3,72,53.6,72,48.8,72z"/>
</g>
</svg>
