<svg id="Capa_1" data-name="Capa 1" xmlns="http://www.w3.org/2000/svg" viewBox="0 0 615.85 614.74"><defs><style>.cls-1{fill:#f9c61f;}.cls-2{fill:#f9c620;}.cls-3{fill:#fefefe;}</style></defs><title>LOGO 7</title><path class="cls-1" d="M500.26,807.56q-151,0-302,0c-6.77,0-5.84.68-5.86-5.89,0-14.46.09-28.93-.09-43.39,0-3.22.92-4.06,4.08-4,9.48.09,9.46,0,9.48-9.46.08-27.49.25-55,.24-82.46q-.08-150.13-.24-300.26c0-4.81-.06-9.63,0-14.44.08-7.57,4-11.89,11.46-12.63a122.58,122.58,0,0,1,15.69-.15c9,.25,18.08-.12,27.13-.14,4.67,0,9.33.29,14,.26,6.69,0,9-2.32,9-8.93,0-12.9,0-25.8,0-38.7,0-9.55,4.83-14.17,14.46-14.35,3.62-.07,8.27,1.64,10.57-.86,2.08-2.26.55-6.78.58-10.31.08-9.82,0-9.83,10-9.83,6.1,0,12.2.17,18.29-.06,3.22-.13,4.6.64,4.36,4.16-.3,4.51,0,9.07-.12,13.6-.1,2.62.86,3.65,3.44,3.36a26.9,26.9,0,0,1,3,0q177.15,0,354.3,0c4.22,0,8.16.41,11.4,3.53,3,2.88,3.94,6.38,3.93,10.39-.05,12.76,0,25.52,0,38.28,0,7.7,2.09,10.1,9.85,9.7,9.33-.48,18.64.54,28-.21,8.88-.7,17.8.42,26.74,0,7.7-.34,12.43,4.76,12.68,12.44.14,4.39,0,8.78,0,13.17V650c0,33.43,0,66.86-.08,100.29,0,3.19.79,4.14,4,4.13,9.57,0,9.57.1,9.57,9.8,0,12.76-.17,25.53.1,38.28.09,4-.89,5.21-5.08,5.2q-82.08-.23-164.17-.1Z" transform="translate(-192.32 -192.92)"/><path class="cls-1" d="M324.93,192.93c6.39-.06,12.78.08,18.92,2.1,6.81,2.23,11.62,6.37,12.64,13.91,1.08,8-.33,15-8,19.46-1.47.85-2.85,1.86-4.36,2.64-6.24,3.22-9.86,8-9.05,15.31.25,2.26-.66,3-2.87,2.91-4.81-.11-9.64-.11-14.45.05-2.34.08-3.07-.9-2.81-3,.89-7.4-2.77-12.08-9-15.26-1.51-.76-2.85-1.84-4.32-2.71-7.38-4.37-9.05-11.17-8-19.05,1-7.43,5.58-11.84,12.42-14.15C312.16,193.06,318.54,192.9,324.93,192.93Z" transform="translate(-192.32 -192.92)"/><path class="cls-1" d="M753.23,314.67c4.67,0,9.33.09,14,0,2.1-.06,3,.58,3.21,2.76a91.36,91.36,0,0,1,.06,12.27c-.1,1.77-.76,2.78-2.86,2.76q-14.6-.15-29.21,0c-2.08,0-2.52-.86-2.68-2.77-1.26-15.1-1.3-15.1,13.68-15.08h3.81Z" transform="translate(-192.32 -192.92)"/><path class="cls-2" d="M247.15,314.58c4.81,0,9.63.1,14.44-.05,2.39-.07,3.23.71,3.12,3.14-.18,4.1-.14,8.22,0,12.32.07,2.1-.76,2.7-2.72,2.67-9.62-.14-19.24-.25-28.86-.24-2.23,0-3-.81-2.92-3,.09-4.25.12-8.51-.13-12.74-.15-2.38,1.18-2.06,2.62-2.05h14.45Z" transform="translate(-192.32 -192.92)"/><path class="cls-3" d="M500.32,754.31q-120.37,0-240.74.09c-4.16,0-5.44-.82-5.42-5.27.15-32-.09-64-.08-96.07q.06-140.56.08-281.13c0-4.55,1.38-5.32,5.46-5.22,10.34.27,20.7,0,31.05.1a19.07,19.07,0,0,0,15.6-7.16c6.63-7.82,11.69-16.7,17.38-25.15,3.32-4.94,6.66-9.84,10.41-14.49a17.42,17.42,0,0,1,14.33-6.94c23.39,0,46.78-.08,70.17-.08q51.85,0,103.71,0c41.53,0,83.05.24,124.57-.23,10.73-.12,18.11,3.67,23.73,12.42,6.34,9.9,13.1,19.53,19.57,29.34,5.65,8.58,12.93,13.25,23.78,12.41,9.3-.73,18.71,0,28.06-.23,3.29-.07,4.34.76,4.3,4.2-.2,15.31-.09,30.63-.09,45.94v222q0,54.84,0,109.67c0,6.43.84,5.75-5.56,5.75Z" transform="translate(-192.32 -192.92)"/><path class="cls-1" d="M500.26,529q-51,0-102.07,0c-31.89,0-63.77,0-95.66.25-3.9,0-5.17-.4-5.24-5-.51-32.6-.08-65.19-.18-97.78-.07-22.56,13.32-40.62,34-46.45a45.79,45.79,0,0,1,12.59-1.61c35.87,0,71.74-.06,107.61,0,21.75.06,39.57,14.05,44.82,35.22.83,3.32,2.18,4,5.4,4,55.15-.1,110.31.24,165.46-.23,19.74-.17,37,14.72,36.45,36.69-.38,16.41-.37,32.83-.44,49.25,0,7.19,0,14.39.32,21.57.17,3.32-.61,4.34-4.09,4.32Q646.1,529,593,529q-46.35,0-92.71,0Z" transform="translate(-192.32 -192.92)"/><path class="cls-1" d="M499.78,592.69H269.71c-5.8,0-5.8,0-5.8-5.63,0-43.24.06-86.47-.09-129.71,0-3.94,1.06-5.13,4.93-4.86a112.38,112.38,0,0,0,14.45,0c3.48-.21,4.55.79,4.53,4.41-.16,25.23,0,50.46-.21,75.69,0,4.46,1.29,5.25,5.43,5.25q207.32-.17,414.63,0c4.29,0,5.4-1,5.36-5.32-.23-25.23-.06-50.47-.18-75.7,0-3.19.61-4.57,4.15-4.35a126,126,0,0,0,15.3,0c3.6-.21,4.43,1,4.42,4.5-.12,41.68-.07,83.36-.07,125,0,10.68,0,10.68-10.54,10.68Z" transform="translate(-192.32 -192.92)"/><path class="cls-1" d="M499.8,741.79H269.27c-6.1,0-5.29.79-5.34-5.51-.05-7.8.21-15.6-.1-23.39-.16-4,.77-5.26,5-5.24,34.87.19,69.75.11,104.63.11q178.85,0,357.71-.09c4.11,0,5.71.7,5.46,5.25-.42,8.05-.3,16.16,0,24.23.12,3.63-.7,4.78-4.6,4.75-29.21-.19-58.42-.1-87.62-.1Z" transform="translate(-192.32 -192.92)"/></svg>