<svg id="Capa_1" data-name="Capa 1" xmlns="http://www.w3.org/2000/svg" viewBox="0 0 335.78 268.66"><defs><style>.cls-1{fill:#f9c61f;}.cls-2{fill:#fefefe;}</style></defs><title>LOGO 1</title><path class="cls-1" d="M483.93,606.34c-34,0-67.92-.06-101.88,0-9.19,0-16.41-4.86-23.83-9.13s-13.39-10.17-16.94-17.87c-2.81-6.07-6.56-11.89-6.81-19-1.92-55.23-.37-110.48-.78-165.72-.09-12.58,4.55-23.47,12.5-33.35,6.22-7.74,14.09-12.79,22.55-17.37,1.87-1,3.9-.82,5.81-1.37,2.1-.6,3.89-1,4.4-3.36.44-2,2.09-1.22,3.2-1.24,6.67-.12,13.35-.15,20-.15q87.3,0,174.59,0c4.8,0,9.29,1.67,13.86,2.68,5.78,1.27,9.84,5.74,15.64,6.32,2.52.25,3.84,2.79,5.62,4.3,10.53,8.87,18.83,19.41,21.83,33.16,1.43,6.54,2.59,13.23,2.21,20-.43,7.63.64,15.28-.81,22.92-1.49,7.89,3.47,13.07,9.22,16.65A97.43,97.43,0,0,1,668.5,465.4c1.49,1.82.66,9.94-1.15,11.51-3.79,3.29-6.2,7.73-9.86,11.25-6,5.71-12.77,10.26-18.92,15.66-3.57,3.13-3.88,6.88-3.43,11a175.84,175.84,0,0,1,0,34.94c-.83,9.08-2.9,17.53-7.51,25.61S617,589.5,609.92,595c-4.58,3.56-9.47,6.25-15.3,7.22-1.15.19-3.23.17-3.24,2.67s-2.2,1.36-3.4,1.37c-14.65.1-29.31.11-44,.12H483.93Z" transform="translate(-333.49 -337.8)"/><path class="cls-2" d="M484,350.19c32.22,0,64.44-.29,96.65.17,9.32.14,18,3.86,25.24,10.21,4.51,3.94,8.83,8,11.81,13.2s5.6,10.8,6.17,17.23c.72,8.17-.51,16.33.6,24.49.44,3.2-.21,6.62-.75,9.87-.81,4.84,1.64,9.49.36,14.51-.4,1.56,2.17,4.61,4.44,5.92C635.89,450,642,456,649.41,460.26c6.17,3.61,8,10.52,3.14,17a50.12,50.12,0,0,1-13.29,12.15c-5,3.14-8.52,7.83-13.36,11.08-1.8,1.2-2.27,4.06-2.24,6.69.13,13.36.23,26.71,0,40.06-.17,9.51-1.77,18.8-7.76,26.65-6.33,8.28-13.89,14.68-24.25,17.89a108.66,108.66,0,0,1-13.67,3c-2.71.47-5.66-.66-8.51-.67q-86-.06-172,0c-4.09,0-8.08,1.31-12.31.1-5.91-1.68-11.74-3-17.35-6.07-10.15-5.58-16.2-14.24-20.91-24.16-2.73-5.76-2.81-12.06-2.14-18.35a41.68,41.68,0,0,0,.17-4.33c0-49.34.19-98.69-.15-148-.07-9.61,3.6-17.1,8.91-24.38,4.65-6.38,11.06-11.06,17.71-14.49a34.93,34.93,0,0,1,15.91-4.27C419.55,350.27,451.77,350.19,484,350.19Z" transform="translate(-333.49 -337.8)"/><path class="cls-1" d="M603.77,458c-1.63,4.67,1.11,9.33.45,14.23-.87,6.52-6,8.58-10.48,10.78-7,3.46-13.76,7.48-20.37,11.56-5.36,3.31-11,5.88-16.43,9.08-13.82,8.23-27.78,16.24-41.73,24.25-8.49,4.87-17.1,9.55-25.6,14.42a6.56,6.56,0,0,1-7.22-.12c-13.37-7.71-26.73-15.46-40.25-22.93s-26.71-15.7-40.46-22.89c-10.41-5.44-20.3-11.85-30.57-17.57-3.44-1.92-4.36-4.66-4.37-8.14,0-4.36.19-8.72-.07-13.06-.17-3,1.12-4.8,3.44-6.4,6.45-4.44,13.48-7.87,20.2-11.85,11.47-6.8,23-13.55,34.62-20,12.77-7.12,25.17-15,38.38-21.35,6.8-3.29,13.17-7.46,19.68-11.32a5.39,5.39,0,0,1,5.71-.24c15.33,8.82,30.58,17.79,45.92,26.6,6.91,4,14,7.56,21,11.52,12.77,7.33,25.46,14.79,38.18,22.21,2.88,1.67,6.61,1.9,8.34,5.52C603,454.12,605.33,455.34,603.77,458Z" transform="translate(-333.49 -337.8)"/><path class="cls-2" d="M530.42,422.52c-.39,3.07.86,5.78,3.5,5,11.65-3.6,18.77,4.95,27.54,9.37s16.64,10.46,25.93,13.85c1.27.47,2.52,1.14,2.65,2.6a3.3,3.3,0,0,1-2.38,3.31c-8.54,3.33-15.47,9.49-23.55,13.48a180.31,180.31,0,0,0-20.87,12,3.63,3.63,0,0,1-3.7.36c-2.64-1.14-5.14-2.51-8.25-1.05-1.63.77-2-1-2.5-2.23a16.07,16.07,0,0,0-14.88-8.86,2.94,2.94,0,0,1-2.87-1.44c-4.13-5.88-9.42-9.86-17-9.83-1.14,0-2.51.18-2.59-1.53-.11-2.27-1.36-4.5-.31-6.8a1.28,1.28,0,0,1,1.19-.26c6.33,3.51,9.27-2.83,13.72-4.74a5.47,5.47,0,0,0,2.15-2.12c2.18-3.39,4.63-5.67,9.15-3.95,1.47.56,3-.66,4.18-1.88a8.85,8.85,0,0,1,4.34-2.79c4-.91,4-3.5,3.12-6.65-1.07-3.62-3.68-3.86-6.53-2.71-5,2-10.75,3.27-12.19,9.83-.49,2.24-2.25,1.79-3.85,1.49-5.58-1.06-12.57,3.05-14.18,8.68-.55,1.92-1.15,2.67-2.84,1.64-3.62-2.21-6.72-.57-9.77,1.17-5,2.87-5.3,2.83-7.08-2.4a6.12,6.12,0,0,0-4.34-4.39c-4.54-1.31-8.31-4.86-13.45-4.57-.91.05-1.26-1.05-1.68-1.81-2.46-4.46-7.63-5.54-11.09-8.78-.95-.89-2.19-.09-3.14.67s-1.76,2-2.86.71a3.5,3.5,0,0,1-.32-3.75c1.34-2.75,4-4.13,6.45-5.6,9-5.36,18.49-9.89,27.34-15.64a90.21,90.21,0,0,1,14.8-7.87c4.05-1.66,7,1.91,10.32,3.49,10.07,4.86,19,11.72,29.24,16.42C526.8,416.3,531.39,417.6,530.42,422.52Z" transform="translate(-333.49 -337.8)"/><path class="cls-2" d="M484.88,513.74c-3.9-1-6.65-4.23-10.23-6.06-12.42-6.34-24-14.18-36.54-20.37-5.41-2.67-10.35-6.27-15.57-9.33q-12.85-7.55-25.83-14.93c-3.26-1.87-6.66-3.49-9.89-5.4-4.16-2.47-4.17-5,.27-7.58,8.73-5.12,17.62-9.95,26.45-14.9,2.27-1.28,4.57-2.5,6.82-3.82s4.34-2.45,6.75-.43a1.45,1.45,0,0,0,1.22.32c5.41-2.88,7.23,2,10,4.66,3.87,3.73,7.95,6.61,13.76,5.15,1.69-.42,2.07,1,2.69,2.22,3,5.82,7.56,9.27,14.44,8.72A3.46,3.46,0,0,1,473,454.1a16.92,16.92,0,0,0,11.89,8.76c4.59.72,7.39,1.82,10,5.6,1.61,2.32,4.89,3.49,7.43,5.16.48.32,1.11.88,1.52.76,8.14-2.33,9.83,6.94,15.76,8.86,2.1.69,4,2.22,6.35,1.71,3.68-.81,3.61,1,2.79,3.56a5.5,5.5,0,0,1-2.8,3.19c-7.53,4.17-15.1,8.26-22.61,12.47-4.13,2.32-8.22,4.71-12.23,7.25A17.94,17.94,0,0,1,484.88,513.74Z" transform="translate(-333.49 -337.8)"/><path class="cls-2" d="M490,528.5c-.42-3.87,1.16-5.8,3.68-7.06C505.4,515.57,516.12,508,527.83,502c7.43-3.79,14.62-8.49,22-12.69,12.27-7,24.23-14.55,36.89-20.86,1.79-.9,3.29-2.35,5-3.32,1.41-.77,3.16-1.31,4.48,0s1.35,3.11.66,4.88a8.46,8.46,0,0,1-3.31,4.47c-5.17,3-10.42,5.93-15.61,8.94-9.12,5.29-18.18,10.66-27.33,15.9-7.77,4.45-15.72,8.59-23.4,13.18-10.52,6.27-21.46,11.8-31.83,18.35C490.65,533.84,490.33,533.41,490,528.5Z" transform="translate(-333.49 -337.8)"/><path class="cls-2" d="M378.77,464.34c3.69,1.27,7,4.7,11.22,6.62,9.74,4.45,18.36,10.87,27.85,15.78,7.81,4.05,15.31,8.71,23,13.09l34.87,20a12.29,12.29,0,0,1,1.5.88c2.37,1.83,3.62,6.85,1.82,8.58-2.85,2.72-5.09.78-7.35-1.38-2.74-2.6-6.2-4.22-9.53-5.93-12.05-6.18-23.53-13.36-35.24-20.12-7.39-4.26-15.2-7.85-22.34-12.48-7.86-5.1-16.59-8.59-24.36-13.83a15.36,15.36,0,0,1-5.13-5.74C373.44,466.69,374.91,464.24,378.77,464.34Z" transform="translate(-333.49 -337.8)"/></svg>