<svg id="Capa_1" data-name="Capa 1" xmlns="http://www.w3.org/2000/svg" xmlns:xlink="http://www.w3.org/1999/xlink" viewBox="0 0 422.99 310.7"><defs><style>.cls-1{fill:none;}.cls-2{clip-path:url(#clip-path);}.cls-3{fill:#f9c61f;}</style><clipPath id="clip-path" transform="translate(-278.47 -324.14)"><polyline class="cls-1" points="973.2 26 26 26 26 973.2 973.2 973.2 973.2 26"/></clipPath></defs><title>LOGO 3</title><g class="cls-2"><path class="cls-3" d="M515.94,324.23a82.44,82.44,0,0,1,15,.69c1,.15,2.62-.48,2.72,1.32a3.24,3.24,0,0,1-1.76,3.2c-1.15.58-2.45.86-3.57,1.49a157.09,157.09,0,0,0-19.88,12.66c-7.87,6.1-15.17,12.8-20.95,20.72-4.3,5.88-9.2,11.76-10.85,19.32a10.29,10.29,0,0,1-2.33,5c-4.06,4.48-3.11,12.67,1.19,17.93,4,4.85,8.82,7,13.46,10.31a273.76,273.76,0,0,0,30,18.4c9.67,5.12,20.14,7.63,30.38,11A125.82,125.82,0,0,1,576.14,459c9.13,5.66,18.72,10.61,27.63,16.59a163.93,163.93,0,0,0,15.24,9.4c5.2,2.71,9.34,7.18,15.19,8.71,2.82.73,4,3.86,6.52,4.93,6.36,2.75,12,6.56,17.84,10.29,7.14,4.6,15.58,6.37,23.16,10,5.36,2.59,10.72,5.08,16.91,4.39,1.59-.18,1.87.86,2.12,2.13,1.23,6.41.68,12.78-.22,19.16-.15,1.08-.68,1.41-1.71,1.52-3.58.38-5.25,3-7.07,5.75-3.28,5-5.64,10.7-11.5,13.63-3.76,1.87-6.9,1.4-9.67-1.41a122,122,0,0,0-20.3-16.18c-5.38-3.52-11-7.08-16.79-10.19-6.24-3.36-12.69-6.47-18.79-10.18-10.12-6.14-20.48-11.9-30.8-17.7-9.09-5.11-18.36-9.89-27.37-15.12a147.59,147.59,0,0,1-28-20.78c-8.35-7.95-18-14.11-27.89-20.11-5.11-3.1-11.08-4.94-15.18-9.8-2.08-2.47-6.36-1.14-8.51-3.58-2.71-3.06-6.15-4.18-9.86-4.89-7.77-1.46-15.58-2-22.9,1.62-3.73,1.82-6.23,5.46-8.6,8.72a6.26,6.26,0,0,0,1,8.66c3.92,3.58,4.52,8.22,1.77,12.87-1.76,3-3.59,5.9-5.24,8.94-1.76,3.25-4.17,4.16-7.82,3.35s-6.52-2.54-9.66-4.39c-10-5.86-19.62-12.28-30-17.36-4.58-2.24-6.1-6.89-4.17-11.57s5.36-8.15,8.36-12a3.82,3.82,0,0,1,3.44-1.49c1.6.08,3.23-.12,4.82.05,8.83,1,10.35-3.47,10.11-12a17.54,17.54,0,0,1,1.78-8.81c6.53-13.23,14.41-25.72,21.77-38.46,4.88-8.46,12.3-15.31,20.48-21,3.78-2.64,7.22-5.81,11.16-8.15a209.65,209.65,0,0,1,25.28-13.28c3.36-1.42,8.18-1,9.68-5.82.1-.31,1.34-.32,2.05-.38C505.63,324.51,510.85,323.9,515.94,324.23Z" transform="translate(-278.47 -324.14)"/><path class="cls-3" d="M339.79,611.89q-25.87,0-51.74,0c-6.63,0-9.55-2.77-9.4-9.44s-.83-13.06.68-19.56c1.05-4.5,4-6.1,8.17-6.1,29.67,0,59.34-.1,89,.08,4.72,0,9.35,1.07,14.2.1,2.76-.55,3-1.66,2.75-3.68-.95-7.74-2.41-15.44-1.77-23.31.35-4.26,1.35-8.41.21-12.86-.91-3.54-3.19-6.32-4-9.89-1.25-5.56-.29-7.52,5.29-7.41,4.91.08,9.85-.76,14.73.77,3.75,1.18,4.55,3.56,3.62,7s-2.78,6.79-3.3,10.63c-.86,6.25.52,12.36.27,18.55a45,45,0,0,1-1.93,12.33c-2.3,7-1,8.93,6.15,8.47,27.42-1.74,54.86-.53,82.28-.59,6.07,0,12.19-.89,18.4.35,4.42.89,6.57,3.27,6.94,6.95a78.59,78.59,0,0,1-.16,20.5c-1,5.9-4.31,8-11.5,7.68-29-1.26-58.09-.26-87.14-.49-5.93-.05-11.93-1-17.8.74-.87.26-2.19-.39-2.33,1.25a2.57,2.57,0,0,0,1.21,2.2c2.05,1.68,4.72,2.54,5,6,.37,4.86-3.72,7.68-4.75,11.86-.3,1.21-6.12,1-6.6-.27-.78-2.07-2.29-3.63-3.32-5.49-2.27-4.06-1.53-6.89,2.26-10.79,1.14-1.18,3.47-2.15,2.37-4.15-.82-1.51-2.93-1.48-4.73-1.48Q366.32,611.92,339.79,611.89Z" transform="translate(-278.47 -324.14)"/></g></svg>