<?xml version="1.0" encoding="utf-8"?>
<!-- Generator: Adobe Illustrator 23.0.0, SVG Export Plug-In . SVG Version: 6.00 Build 0)  -->
<svg version="1.1" id="Capa_1" xmlns="http://www.w3.org/2000/svg" xmlns:xlink="http://www.w3.org/1999/xlink" x="0px" y="0px"
	 viewBox="0 0 100 100" style="enable-background:new 0 0 100 100;" xml:space="preserve">
<style type="text/css">
	.st0{opacity:0.15;fill:#007433;}
	.st1{fill:#F9C61F;}
</style>
<circle class="st0" cx="50" cy="50" r="47.1"/>
<path class="st1" d="M88.9,8.7H11.1c-4.3,0-7.7,3.6-7.7,7.7v51.8c0,4.3,3.6,7.7,7.7,7.7h31.1l-2.7,7.7H27.8c-2.2,0-3.8,1.8-3.8,3.8
	s1.8,3.8,3.8,3.8h44.1c2.2,0,3.8-1.8,3.8-3.8s-1.8-3.8-3.8-3.8H60.2l-2.4-7.5h31.1c4.3,0,7.7-3.6,7.7-7.7V16.5
	C96.6,12.3,93.1,8.7,88.9,8.7z M86.3,65.7H13.7V19.1h72.5V65.7z"/>
</svg>
