<?xml version="1.0" encoding="utf-8"?>
<!-- Generator: Adobe Illustrator 24.0.2, SVG Export Plug-In . SVG Version: 6.00 Build 0)  -->
<svg version="1.1" id="Capa_1" xmlns="http://www.w3.org/2000/svg" xmlns:xlink="http://www.w3.org/1999/xlink" x="0px" y="0px"
	 viewBox="0 0 100 100" style="enable-background:new 0 0 100 100;" xml:space="preserve">
<style type="text/css">
	.st0{fill:#F9C61F;}
</style>
<path class="st0" d="M76.8,22.5H24.2c-2.9,0-5.2,2.4-5.2,5.2v35c0,2.9,2.4,5.2,5.2,5.2h21l-1.8,5.2h-7.9c-1.5,0-2.6,1.2-2.6,2.6
	s1.2,2.6,2.6,2.6h29.8c1.5,0,2.6-1.2,2.6-2.6s-1.2-2.6-2.6-2.6h-7.9L55.8,68h21c2.9,0,5.2-2.4,5.2-5.2v-35
	C82,24.9,79.6,22.5,76.8,22.5z M75,61H26V29.5h49V61z"/>
</svg>
