<?xml version="1.0" encoding="utf-8"?>
<!-- Generator: Adobe Illustrator 23.0.0, SVG Export Plug-In . SVG Version: 6.00 Build 0)  -->
<svg version="1.1" id="Capa_1" xmlns="http://www.w3.org/2000/svg" xmlns:xlink="http://www.w3.org/1999/xlink" x="0px" y="0px"
	 viewBox="0 0 1000 1000" style="enable-background:new 0 0 1000 1000;" xml:space="preserve">
<style type="text/css">
	.st0{opacity:0.15;fill:#007433;}
	.st1{display:none;}
	.st2{display:inline;fill:#F9C61F;}
	.st3{display:inline;fill:#FEFEFE;}
	.st4{display:inline;fill:#FEFEFD;}
	.st5{display:inline;fill:#FEFEFC;}
	.st6{display:inline;}
	.st7{clip-path:url(#SVGID_2_);}
	.st8{fill:#F9C61F;}
	.st9{display:inline;fill:#FBA61F;}
	.st10{display:inline;fill:#FBA720;}
	.st11{display:inline;fill:#FBA824;}
	.st12{display:inline;fill:#FBA926;}
	.st13{display:inline;fill:#FBAA27;}
	.st14{display:inline;fill:#FBAB2C;}
	.st15{display:inline;fill:#FEFDFD;}
	.st16{display:inline;fill:#FEFDFC;}
	.st17{display:inline;fill:#FEFDFB;}
	.st18{display:inline;fill:#FEFCFA;}
	.st19{display:inline;fill:#FEFBF6;}
	.st20{display:inline;fill:#FBA823;}
	.st21{display:inline;fill:#FBA822;}
	.st22{display:inline;fill:#FBA721;}
	.st23{display:inline;fill:#FCB545;}
	.st24{display:inline;fill:#FBAD31;}
	.st25{display:inline;fill:#FEFCF8;}
	.st26{display:inline;fill:#FEFDFA;}
	.st27{display:inline;fill:#FEFBF7;}
	.st28{display:inline;fill:#FEFBF5;}
	.st29{fill:#FBA720;}
	.st30{fill:#FBAB2C;}
	.st31{fill:#FBA926;}
	.st32{fill:#FBA823;}
	.st33{fill:#FBA822;}
	.st34{fill:#FBA721;}
	.st35{fill:#FCB545;}
	.st36{fill:#FBAD31;}
</style>
<circle class="st0" cx="500" cy="500" r="473.5"/>
<g class="st1">
	<path class="st2" d="M483.9,606.3c-34,0-67.9-0.1-101.9,0c-9.2,0-16.4-4.9-23.8-9.1c-7.4-4.2-13.4-10.2-16.9-17.9
		c-2.8-6.1-6.6-11.9-6.8-19c-1.9-55.2-0.4-110.5-0.8-165.7c-0.1-12.6,4.5-23.5,12.5-33.3c6.2-7.7,14.1-12.8,22.5-17.4
		c1.9-1,3.9-0.8,5.8-1.4c2.1-0.6,3.9-1,4.4-3.4c0.4-2,2.1-1.2,3.2-1.2c6.7-0.1,13.4-0.1,20-0.1c58.2,0,116.4,0,174.6,0
		c4.8,0,9.3,1.7,13.9,2.7c5.8,1.3,9.8,5.7,15.6,6.3c2.5,0.2,3.8,2.8,5.6,4.3c10.5,8.9,18.8,19.4,21.8,33.2c1.4,6.5,2.6,13.2,2.2,20
		c-0.4,7.6,0.6,15.3-0.8,22.9c-1.5,7.9,3.5,13.1,9.2,16.6c9.4,5.8,17.3,13.1,24.2,21.5c1.5,1.8,0.7,9.9-1.2,11.5
		c-3.8,3.3-6.2,7.7-9.9,11.2c-6,5.7-12.8,10.3-18.9,15.7c-3.6,3.1-3.9,6.9-3.4,11c1.3,11.7,1.1,23.3,0,34.9
		c-0.8,9.1-2.9,17.5-7.5,25.6c-4.6,8-10.7,14.1-17.7,19.6c-4.6,3.6-9.5,6.3-15.3,7.2c-1.2,0.2-3.2,0.2-3.2,2.7
		c0,2.3-2.2,1.4-3.4,1.4c-14.7,0.1-29.3,0.1-44,0.1C524,606.4,504,606.4,483.9,606.3L483.9,606.3z"/>
	<path class="st3" d="M484,350.2c32.2,0,64.4-0.3,96.7,0.2c9.3,0.1,17.9,3.9,25.2,10.2c4.5,3.9,8.8,8,11.8,13.2
		c3.1,5.3,5.6,10.8,6.2,17.2c0.7,8.2-0.5,16.3,0.6,24.5c0.4,3.2-0.2,6.6-0.8,9.9c-0.8,4.8,1.6,9.5,0.4,14.5
		c-0.4,1.6,2.2,4.6,4.4,5.9c7.4,4.2,13.5,10.2,20.9,14.5c6.2,3.6,8,10.5,3.1,17c-3.7,4.9-8.3,9-13.3,12.1s-8.5,7.8-13.4,11.1
		c-1.8,1.2-2.3,4.1-2.2,6.7c0.1,13.4,0.2,26.7,0,40.1c-0.2,9.5-1.8,18.8-7.8,26.6c-6.3,8.3-13.9,14.7-24.2,17.9
		c-4.5,1.4-9.1,2.2-13.7,3c-2.7,0.5-5.7-0.7-8.5-0.7c-57.3,0-114.7,0-172,0c-4.1,0-8.1,1.3-12.3,0.1c-5.9-1.7-11.7-3-17.3-6.1
		c-10.2-5.6-16.2-14.2-20.9-24.2c-2.7-5.8-2.8-12.1-2.1-18.3c0.2-1.4,0.2-2.9,0.2-4.3c0-49.3,0.2-98.7-0.2-148
		c-0.1-9.6,3.6-17.1,8.9-24.4c4.7-6.4,11.1-11.1,17.7-14.5c4.6-2.4,10.1-4.3,15.9-4.3C419.5,350.3,451.8,350.2,484,350.2z"/>
	<path class="st2" d="M603.8,458c-1.6,4.7,1.1,9.3,0.5,14.2c-0.9,6.5-6,8.6-10.5,10.8c-7,3.5-13.8,7.5-20.4,11.6
		c-5.4,3.3-11,5.9-16.4,9.1c-13.8,8.2-27.8,16.2-41.7,24.2c-8.5,4.9-17.1,9.6-25.6,14.4c-2.5,1.4-4.7,1.3-7.2-0.1
		c-13.4-7.7-26.7-15.5-40.3-22.9c-13.6-7.5-26.7-15.7-40.5-22.9c-10.4-5.4-20.3-11.9-30.6-17.6c-3.4-1.9-4.4-4.7-4.4-8.1
		c0-4.4,0.2-8.7-0.1-13.1c-0.2-3,1.1-4.8,3.4-6.4c6.5-4.4,13.5-7.9,20.2-11.9c11.5-6.8,23-13.5,34.6-20c12.8-7.1,25.2-15,38.4-21.4
		c6.8-3.3,13.2-7.5,19.7-11.3c1.9-1.2,3.9-1.3,5.7-0.2c15.3,8.8,30.6,17.8,45.9,26.6c6.9,4,14,7.6,21,11.5
		c12.8,7.3,25.5,14.8,38.2,22.2c2.9,1.7,6.6,1.9,8.3,5.5C603,454.1,605.3,455.3,603.8,458z"/>
	<path class="st3" d="M530.4,422.5c-0.4,3.1,0.9,5.8,3.5,5c11.7-3.6,18.8,5,27.5,9.4c8.8,4.4,16.6,10.5,25.9,13.9
		c1.3,0.5,2.5,1.1,2.7,2.6c0.1,1.6-1,2.8-2.4,3.3c-8.5,3.3-15.5,9.5-23.5,13.5c-7.3,3.6-14.2,7.5-20.9,12c-1.2,0.8-2.4,0.9-3.7,0.4
		c-2.6-1.1-5.1-2.5-8.2-1c-1.6,0.8-2-1-2.5-2.2c-2.5-5.4-8.7-9.1-14.9-8.9c-1.3,0.1-2.1-0.3-2.9-1.4c-4.1-5.9-9.4-9.9-17-9.8
		c-1.1,0-2.5,0.2-2.6-1.5c-0.1-2.3-1.4-4.5-0.3-6.8c0.1-0.2,0.9-0.4,1.2-0.3c6.3,3.5,9.3-2.8,13.7-4.7c0.9-0.4,1.6-1.3,2.2-2.1
		c2.2-3.4,4.6-5.7,9.1-4c1.5,0.6,3-0.7,4.2-1.9c1.2-1.3,2.6-2.4,4.3-2.8c4-0.9,4-3.5,3.1-6.7c-1.1-3.6-3.7-3.9-6.5-2.7
		c-5,2-10.7,3.3-12.2,9.8c-0.5,2.2-2.2,1.8-3.9,1.5c-5.6-1.1-12.6,3.1-14.2,8.7c-0.5,1.9-1.2,2.7-2.8,1.6c-3.6-2.2-6.7-0.6-9.8,1.2
		c-5,2.9-5.3,2.8-7.1-2.4c-0.7-2.2-1.9-3.7-4.3-4.4c-4.5-1.3-8.3-4.9-13.4-4.6c-0.9,0.1-1.3-1-1.7-1.8c-2.5-4.5-7.6-5.5-11.1-8.8
		c-1-0.9-2.2-0.1-3.1,0.7c-0.9,0.7-1.8,2-2.9,0.7c-0.9-1-0.9-2.5-0.3-3.7c1.3-2.7,4-4.1,6.4-5.6c9-5.4,18.5-9.9,27.3-15.6
		c4.6-3,9.6-5.8,14.8-7.9c4.1-1.7,7,1.9,10.3,3.5c10.1,4.9,19,11.7,29.2,16.4C526.8,416.3,531.4,417.6,530.4,422.5z"/>
	<path class="st3" d="M484.9,513.7c-3.9-1-6.7-4.2-10.2-6.1c-12.4-6.3-24-14.2-36.5-20.4c-5.4-2.7-10.3-6.3-15.6-9.3
		c-8.6-5-17.2-10-25.8-14.9c-3.3-1.9-6.7-3.5-9.9-5.4c-4.2-2.5-4.2-5,0.3-7.6c8.7-5.1,17.6-10,26.4-14.9c2.3-1.3,4.6-2.5,6.8-3.8
		c2.2-1.3,4.3-2.4,6.8-0.4c0.3,0.3,0.9,0.5,1.2,0.3c5.4-2.9,7.2,2,10,4.7c3.9,3.7,8,6.6,13.8,5.2c1.7-0.4,2.1,1,2.7,2.2
		c3,5.8,7.6,9.3,14.4,8.7c1.8-0.1,2.9,0.4,3.8,2.1c2.5,4.8,7.3,8,11.9,8.8c4.6,0.7,7.4,1.8,10,5.6c1.6,2.3,4.9,3.5,7.4,5.2
		c0.5,0.3,1.1,0.9,1.5,0.8c8.1-2.3,9.8,6.9,15.8,8.9c2.1,0.7,4,2.2,6.3,1.7c3.7-0.8,3.6,1,2.8,3.6c-0.5,1.5-1.5,2.5-2.8,3.2
		c-7.5,4.2-15.1,8.3-22.6,12.5c-4.1,2.3-8.2,4.7-12.2,7.2C489.2,512.6,487.2,513.3,484.9,513.7z"/>
	<path class="st3" d="M490,528.5c-0.4-3.9,1.2-5.8,3.7-7.1c11.7-5.9,22.4-13.4,34.1-19.4c7.4-3.8,14.6-8.5,22-12.7
		c12.3-7,24.2-14.5,36.9-20.9c1.8-0.9,3.3-2.3,5.1-3.3c1.4-0.8,3.2-1.3,4.5,0s1.4,3.1,0.7,4.9s-1.6,3.5-3.3,4.5
		c-5.2,3-10.4,5.9-15.6,8.9c-9.1,5.3-18.2,10.7-27.3,15.9c-7.8,4.5-15.7,8.6-23.4,13.2c-10.5,6.3-21.5,11.8-31.8,18.4
		C490.7,533.8,490.3,533.4,490,528.5z"/>
	<path class="st3" d="M378.8,464.3c3.7,1.3,7,4.7,11.2,6.6c9.7,4.5,18.4,10.9,27.8,15.8c7.8,4,15.3,8.7,23,13.1
		c11.6,6.7,23.3,13.3,34.9,20c0.5,0.3,1,0.5,1.5,0.9c2.4,1.8,3.6,6.9,1.8,8.6c-2.9,2.7-5.1,0.8-7.3-1.4c-2.7-2.6-6.2-4.2-9.5-5.9
		c-12-6.2-23.5-13.4-35.2-20.1c-7.4-4.3-15.2-7.9-22.3-12.5c-7.9-5.1-16.6-8.6-24.4-13.8c-2.3-1.5-4-3.5-5.1-5.7
		C373.4,466.7,374.9,464.2,378.8,464.3z"/>
</g>
<g class="st1">
	<path class="st2" d="M432.4,568.7c46.3,0,92.5,0,138.8,0.1c4,0,6.4-1.4,7.2-5.2c0.8-4,0.8-8.1,0.1-12c-0.6-3.1-2.8-4.8-6.6-4.7
		c-16,0.2-32.1,0.1-48.1,0.1c-1.2,0-2.5,0.1-3.7-0.2c-5-1.1-9.3-5.4-9-8.9c0.4-4.3,4.9-7.6,10.7-7.6c7.4,0,14.8,0,22.2,0
		c9.1,0,18.1,0,27.2,0c6,0,7.2-1.2,7.6-7.1c0.1-0.7,0-1.4,0-2.1c0-53.2,0-106.5,0-159.7c0-5.2-2.3-7.6-7.5-7.6
		c-20.9,0-41.8,0-62.7,0c-3.2,0-6.4,1.6-9.7,0c-1.7-0.8-3.2-1.4-4.4-2.9c-2.8-3.4-2.3-6.3-0.4-10.3c2.1-4.3,4.9-4.5,8.7-4.4
		c28.2,0.1,56.3,0,84.5,0.1c2.8,0,4.8-0.3,6.4,3.7c1.8,4.5,2.7,8.8,2.7,13.5c0,11.3,0.1,22.6,0,33.9c0,3.4-0.7,6.9-0.8,10.3
		c-0.1,5.3,1,6.3,6.2,6.3c13,0,25.9,0.4,38.9-0.1c14.6-0.6,24.4,7.3,33.1,17.2c4.2,4.7,8,9.7,11.3,15.1c4.2,7,8.2,14.1,11.7,21.4
		c1.2,2.6,2.3,5.2,3.8,7.7c4.5,7.6-1,13.5-7.6,14.6c-2.9,0.5-6,0.1-8.9,0.1c-16.6,0-33.2,0.1-49.8-0.1c-2.5,0-5,0.7-7.6,0.2
		c-6.4-1.1-10.2-5.1-10.2-11.6c0-13.4,0-26.8,0-40.1c0-4.9-1.1-6-6.1-6.1c-2.6,0-5.3,0-7.9,0c-5.5,0-8,2.9-6.7,8.2
		c0.6,2.5,0.7,4.9,0.7,7.4c0,37.5,0,75,0,112.5c0,2.9,0,5.7-0.7,8.6c-1.3,5.9,1.3,8.8,7.3,8.8c34.3,0,68.6,0,102.9,0
		c6.1,0,8.8-3,7.5-9c-1.5-7.3-0.5-14.7-0.6-22c-0.1-3.4,4.9-8.9,8-9.8c4.4-1.3,10.3,4.2,10.3,9.6c0,10.5,0,20.9,0,31.4
		c0,10-0.4,20.1,0.1,30.1c0.3,5.8-1.8,10.3-5.2,14.4c-6.6,8.1-14.9,12.8-25.8,12.3c-5.7-0.3-11.7-1.3-16,4.4c-1.5,2-3.6,3.7-5.4,5.5
		c-5.2,5.3-11,8.7-18.8,7.7c-3.1-0.4-6.4,0-9.6-0.1c-4.3,0-8.3,0.5-11.8-3.8c-2.9-3.5-8.3-4.9-11-9c-4.3-6.6-10.4-7.4-17.5-7.4
		c-55.1,0.2-110.1,0.1-165.2,0.1c-5.7,0-10.1,1.4-13.5,6.6c-1.8,2.8-4.6,5.5-8,7.3c-2.3,1.2-5.5,1.8-6.4,5.2c-0.3,1.2-1.8,1-2.9,1
		c-7,0-13.9,0-20.9,0c-0.9,0-2.3,0.5-2.4-0.9c-0.3-3.5-3.1-4-5.5-5.2c-1.7-0.8-3.1-2.2-4.6-3.5c-3.9-3.4-9.4-3.3-12.3,0.8
		c-1.6,2.3-4.3,2.1-6.2,3.7c-1.4,1.2-3.6,1.4-3.4,4c0.1,0.9-0.8,1.1-1.5,1c-8.2-0.4-16.5,1.3-24.4-0.9c-3.2-0.9-5.8-3.7-8.7-5.7
		c-1.3-0.9-2.6-1.5-4.5-1.6c-3.5-0.1-4.6-3.7-5.8-6.1c-1.3-2.5-2.8-3.2-5.1-3.2c-5.6,0-11.1,0.2-16.7,0.2c-2.4,0-5.2,0.5-6.3-2.9
		c-0.7-2.2-3.4-1.4-5.1-3.1c-3.9-4-5.2-10.1-10.6-12.7c-0.8-0.4-0.7-1.1-0.7-1.7c0-1.1,0-2.2,0-3.3c0-86.1,0.1-172.3-0.2-258.4
		c0-4.8,1.7-6.2,5.7-6.5c1-0.1,2,0,2.9,0c48.4,0,96.7,0,145.1,0c1.4,0,3.9,0,4,0.3c0.6,3.6,4,5.6,4.6,9c0.5,2.6-4.8,7.5-7.8,8.3
		c-3.2,0.9-6.2-0.2-9.3-0.2c-39.9,0.1-79.7,0-119.6,0c-6.8,0-7.9,1.2-7.9,7.9c0,53.5,0,107,0,160.6c0,6.9,1.1,8,7.8,8
		c16.3,0,32.6,0,48.9,0c3.2,0,6.4,0.4,8.4,3.3c1.4,2,3.5,3.8,1.8,7c-2.2,4-5.5,6.1-9.8,6.4c-5.1,0.3-10.3,0.1-15.5,0.1
		c-11.8,0-23.7,0-35.5,0c-4.3,0-6,1.7-6.1,5.9c-0.1,3.2-0.1,6.4,0,9.6c0.1,4.5,1.8,6.2,6.3,6.2C339.5,568.7,385.9,568.7,432.4,568.7
		z"/>
	<path class="st2" d="M730.9,497.9c0,5.8-5.4,11.4-10.8,11.3c-4.1-0.1-11-6.8-10.7-10.8c0.3-5.5,7-11.6,11-11.6
		C725.3,486.7,730.9,492.6,730.9,497.9z"/>
	<path class="st2" d="M461.4,356.3c-4.5,0-11.8-6.7-11.3-10.9c0.4-2.9,2.2-5.8,3.8-7.8c1.6-1.9,5.6-1.5,8.6-1.4
		c5.1,0.1,10.6,4.8,10.8,9.4C473.5,349.7,466.2,356.3,461.4,356.3z"/>
	<path class="st3" d="M529.4,586.3c28.3,0,56.6,0,84.8,0c5.2,0,7,2.7,4.9,7.7c-1.2,2.8-2.3,5.5-3,8.5c-0.6,2.6-2.4,3.9-5.5,3.9
		c-53.9-0.1-107.8-0.1-161.8,0c-3.3,0-5.8-1.2-6.8-4.3c-1.2-3.5-2.2-7-2.9-10.6c-0.8-3.9,0.8-5.3,5-5.3c24.9,0.2,49.9,0.1,74.8,0.1
		C522.4,586.3,525.9,586.3,529.4,586.3z"/>
	<path class="st3" d="M366.2,606c0.2,10.2-9.4,20.4-20.5,20c-11.3-0.3-20.1-8-20.1-20.6c0-12.1,10-19.9,20.5-19.8
		C357,585.7,366.5,595.3,366.2,606z"/>
	<path class="st3" d="M403.8,586.2c12.2,0.3,19.5,8.3,20,19.6c0.5,10.6-9.2,19.8-20.1,19.6c-12.2-0.2-19.8-7.7-19.8-20.1
		C384,594.3,392.3,586.1,403.8,586.2z"/>
	<path class="st3" d="M674,606.1c1.5,10.5-9.3,19.4-19.5,19.5c-11,0.1-19.9-9.3-20-20.2c-0.1-8.4,8.8-19.6,20.2-19.2
		C664.8,586.5,675.6,594.8,674,606.1z"/>
	<path class="st4" d="M655.9,461.6c-5.6,0-11.1-0.1-16.7,0c-3.2,0-4.5-1.4-4.5-4.5c0.1-10,0.1-20,0-30c-0.1-3.1,1.4-4.3,4-4.7
		c8.5-1.1,15,2,20.5,8.7c6.1,7.6,11.7,15.5,16.2,24.2c2.5,4.7,1.4,6.3-3.7,6.3C666.5,461.6,661.2,461.6,655.9,461.6z"/>
	<path class="st5" d="M700.4,585.5c2.2,0,4.5,0.1,6.7,0c3.6-0.3,5.5,1.6,6,4.9c1.9,13.2-5.8,17.3-16.6,16.4
		c-3.5-0.3-4.3-3.3-4.6-6.1c-0.3-2.7-1.1-5-2.3-7.4c-2.6-4.8-0.8-7.7,4.6-7.8C696.3,585.5,698.3,585.6,700.4,585.5L700.4,585.5z"/>
	<path class="st4" d="M300.6,606.3c-13,0.8-14.7-8.9-12.7-17.5c0.6-2.4,2.9-3.9,5.6-3.2c4.1,1.1,8.3,0.6,12.4,0.7
		c5,0.1,6.6,2,4.8,6.8c-1.1,3-2,5.9-2.5,9.1C307.6,606.7,303.8,606.6,300.6,606.3z"/>
</g>
<g class="st1">
	<g class="st6">
		<g>
			<defs>
				<polyline id="SVGID_1_" points="973.2,26 26,26 26,973.2 973.2,973.2 973.2,26 				"/>
			</defs>
			<clipPath id="SVGID_2_">
				<use xlink:href="#SVGID_1_"  style="overflow:visible;"/>
			</clipPath>
			<g class="st7">
				<path class="st8" d="M515.9,324.2c5.2-0.2,10.1,0,15,0.7c1,0.2,2.6-0.5,2.7,1.3c0.1,1.3-0.5,2.6-1.8,3.2
					c-1.1,0.6-2.4,0.9-3.6,1.5c-6.9,3.8-13.6,7.8-19.9,12.7c-7.9,6.1-15.2,12.8-20.9,20.7c-4.3,5.9-9.2,11.8-10.9,19.3
					c-0.4,1.7-1,3.5-2.3,5c-4.1,4.5-3.1,12.7,1.2,17.9c4,4.8,8.8,7,13.5,10.3c9.6,6.8,19.6,12.9,30,18.4c9.7,5.1,20.1,7.6,30.4,11
					c9.4,3.1,18.3,7.4,26.8,12.7c9.1,5.7,18.7,10.6,27.6,16.6c5,3.3,10,6.7,15.2,9.4c5.2,2.7,9.3,7.2,15.2,8.7
					c2.8,0.7,4,3.9,6.5,4.9c6.4,2.7,12,6.6,17.8,10.3c7.1,4.6,15.6,6.4,23.2,10c5.4,2.6,10.7,5.1,16.9,4.4c1.6-0.2,1.9,0.9,2.1,2.1
					c1.2,6.4,0.7,12.8-0.2,19.2c-0.2,1.1-0.7,1.4-1.7,1.5c-3.6,0.4-5.3,3-7.1,5.7c-3.3,5-5.6,10.7-11.5,13.6
					c-3.8,1.9-6.9,1.4-9.7-1.4c-6.1-6.2-13.1-11.5-20.3-16.2c-5.4-3.5-11-7.1-16.8-10.2c-6.2-3.4-12.7-6.5-18.8-10.2
					c-10.1-6.1-20.5-11.9-30.8-17.7c-9.1-5.1-18.4-9.9-27.4-15.1c-10.1-5.9-19.5-12.7-28-20.8c-8.3-8-18-14.1-27.9-20.1
					c-5.1-3.1-11.1-4.9-15.2-9.8c-2.1-2.5-6.4-1.1-8.5-3.6c-2.7-3.1-6.1-4.2-9.9-4.9c-7.8-1.5-15.6-2-22.9,1.6
					c-3.7,1.8-6.2,5.5-8.6,8.7c-1.9,2.6-1.9,6,1,8.7c3.9,3.6,4.5,8.2,1.8,12.9c-1.8,3-3.6,5.9-5.2,8.9c-1.8,3.3-4.2,4.2-7.8,3.4
					c-3.6-0.8-6.5-2.5-9.7-4.4c-10-5.9-19.6-12.3-30-17.4c-4.6-2.2-6.1-6.9-4.2-11.6c1.9-4.6,5.4-8.2,8.4-12c0.9-1.1,2-1.6,3.4-1.5
					c1.6,0.1,3.2-0.1,4.8,0.1c8.8,1,10.4-3.5,10.1-12c-0.1-3.2,0.3-5.9,1.8-8.8c6.5-13.2,14.4-25.7,21.8-38.5
					c4.9-8.5,12.3-15.3,20.5-21c3.8-2.6,7.2-5.8,11.2-8.1c8.2-4.9,16.5-9.6,25.3-13.3c3.4-1.4,8.2-1,9.7-5.8c0.1-0.3,1.3-0.3,2-0.4
					C505.6,324.5,510.9,323.9,515.9,324.2z"/>
				<path class="st8" d="M339.8,611.9c-17.2,0-34.5,0-51.7,0c-6.6,0-9.6-2.8-9.4-9.4c0.1-6.5-0.8-13.1,0.7-19.6c1-4.5,4-6.1,8.2-6.1
					c29.7,0,59.3-0.1,89,0.1c4.7,0,9.4,1.1,14.2,0.1c2.8-0.5,3-1.7,2.8-3.7c-0.9-7.7-2.4-15.4-1.8-23.3c0.3-4.3,1.3-8.4,0.2-12.9
					c-0.9-3.5-3.2-6.3-4-9.9c-1.3-5.6-0.3-7.5,5.3-7.4c4.9,0.1,9.8-0.8,14.7,0.8c3.8,1.2,4.6,3.6,3.6,7c-1,3.6-2.8,6.8-3.3,10.6
					c-0.9,6.3,0.5,12.4,0.3,18.5c-0.2,4.2-0.6,8.3-1.9,12.3c-2.3,7-1,8.9,6.1,8.5c27.4-1.7,54.9-0.5,82.3-0.6
					c6.1,0,12.2-0.9,18.4,0.3c4.4,0.9,6.6,3.3,6.9,7c0.7,6.8,1,13.7-0.2,20.5c-1,5.9-4.3,8-11.5,7.7c-29-1.3-58.1-0.3-87.1-0.5
					c-5.9,0-11.9-1-17.8,0.7c-0.9,0.3-2.2-0.4-2.3,1.2c-0.1,1,0.5,1.7,1.2,2.2c2,1.7,4.7,2.5,5,6c0.4,4.9-3.7,7.7-4.8,11.9
					c-0.3,1.2-6.1,1-6.6-0.3c-0.8-2.1-2.3-3.6-3.3-5.5c-2.3-4.1-1.5-6.9,2.3-10.8c1.1-1.2,3.5-2.1,2.4-4.1c-0.8-1.5-2.9-1.5-4.7-1.5
					C375.2,611.9,357.5,611.9,339.8,611.9z"/>
			</g>
		</g>
	</g>
</g>
<g class="st1">
	<path class="st2" d="M462.4,619.3c-96.5,0-193.1,0-289.6,0c-6,0-6.2-0.3-5.1-6.2c2.2-12.3,10.9-18,21.7-21.2
		c13.9-4.1,28.3-5.8,42.6-7.8c16.7-2.4,31.2-10,44.8-19.5c15.5-10.7,29.2-23.4,41.6-37.5c2.4-2.7,4.9-3.6,8.5-3.6
		c45.2,0.1,90.3,0.1,135.5,0.1c3.4,0,6.8,0.4,10-0.1c12-1.9,20.9,3.2,30.3,10.3c32.1,24.2,67.7,41.1,107.8,47.5
		c9.8,1.6,19.6,2.6,29.4,2.5c24.9-0.3,49.9,0.1,74.8,1.1c8.9,0.4,17.9,0.2,26.5,3.9c11.8,5.1,16.7,17.4,16.6,28.8
		c0,1.9-1,1.8-2.2,1.8c-2.7,0-5.3,0-8,0C652.5,619.3,557.4,619.3,462.4,619.3z"/>
	<path class="st2" d="M694.8,575.8c-17.6,0-35.1-0.1-52.7,0c-6.8,0.1-13.5-0.7-20.3-0.9c-3-0.1-4-1.7-3.9-4.2
		c0.4-12.3,4.3-23.6,20.2-27.8c11.9-3.1,24.1-3.4,36-6.1c9.1-2.1,17.7-5.3,25.1-11.2c10-8,12-18.4,8.8-30.2
		c-3.5-13.4-11-24.7-19.7-35.1c-13.5-16.1-24.8-33.6-37.1-50.6c-7.8-10.7-15.1-21.7-22.8-32.6c-2.1-2.9-2.4-4.8,0.7-7.6
		c18-16.4,35.7-33,53.6-49.5c9.5-8.8,19.6-17.1,28.4-26.6c7.8-8.4,17.4-12.1,28-14.2c13.3-2.7,26.6-4.8,40.2-2.9
		c7.3,1,14.5,2.3,20.6,6.9c5.2,3.9,6.2,9.2,2.7,14.7c-4.6,7.2-11.7,11.6-18.7,15.8c-9.9,6-20.1,11.6-30.2,17.3
		c-6.8,3.9-13.2,8.5-18.2,14.6c-8.2,10-7.4,20.8-1.8,31.8c5.3,10.3,12.7,19.1,20,28c13.8,16.5,28.5,32.3,40.5,50.2
		c10.3,15.3,15.8,32.3,18.2,50.5c1.7,12.9,1.4,25.8,0.1,38.8c-0.8,8.3-6.4,12.4-12.4,16.3c-16.2,10.5-33.9,15-53.2,14.6
		C729.6,575.7,712.2,575.9,694.8,575.8L694.8,575.8z"/>
	<path class="st2" d="M282.7,489.2c-0.8,18.3-7.8,33.5-22.3,45.1c-11.2,8.9-17.1,20.1-15,34.6c0.5,3.3-1,4.4-3.8,5.1
		c-10.4,2.9-21.1,3.7-31.7,5.3c-2.4,0.4-5.5,2.3-7.1,0.5c-1.3-1.6,0.4-4.6,0.9-7c3.1-16.7-2.5-29.5-16.1-39.9
		c-12.3-9.4-19-22.6-20.2-38.3c-1.9-25,8.3-43.6,29.5-56.5c18.7-11.3,46.9-8.5,63.8,5.3C275,454.9,283.2,473.8,282.7,489.2z"/>
	<path class="st2" d="M417.4,515.6c4.5-7.3,8.7-14,12.9-20.7c13.2-20.7,26.4-41.4,39.6-62.1c16.2-25.4,32.3-50.9,48.5-76.4
		c1.8-2.8,3.6-5.7,5.5-8.5c1.7-2.5,3.7-3.2,6.2-1c8.7,7.5,17.3,15.1,26.1,22.5c2.3,1.9,0.8,3-0.3,4.2c-8.4,10.3-16.8,20.5-25.2,30.7
		c-15.5,18.9-30.9,37.9-46.3,56.8c-14.5,17.6-29,35.2-43.4,52.9c-1.1,1.4-2.2,1.6-3.7,1.6C431,515.6,424.6,515.6,417.4,515.6z"/>
	<path class="st2" d="M749.4,583.9c19.7,0.4,36.8-5,52.6-14.3c2.4-1.4,4.6-3.1,6.8-4.8c2.9-2.3,6.1-3.2,9.5-1.6
		c3.3,1.6,4.8,4.5,4.8,8.2c0,11.1,0.2,22.1,0.3,33.2c0,9.7-5,14.7-14.7,14.7c-12.8,0-25.7-0.1-38.5,0.1c-3.2,0-4.4-0.8-4.5-4.1
		C765.1,602.9,760.3,592.4,749.4,583.9z"/>
	<path class="st2" d="M491.9,496.2c7.5-6.9,14.1-12.9,20.7-18.9c1.1-1,2.5-0.7,3.8-0.7c7.5,0,15-0.1,22.6,0.1
		c2.8,0.1,3.5-0.9,3.4-3.5c-0.2-5.7-0.1-11.5-0.1-17.3c0-3.9,1.6-6.1,5.8-6c5,0.1,10,0.1,15,0c3.8-0.1,5.4,1.9,5.5,5.4
		c0,20.8,0,41.5,0,62.3c0,3.9-2.1,5.7-5.7,5.7c-5.9,0.1-11.8,0-17.7,0c-2.4,0-3-1.1-3-3.2c0.1-6.3-0.1-12.7,0.2-19
		c0.2-3.6-0.5-5.1-4.6-5.1C523,496.4,508.1,496.2,491.9,496.2z"/>
	<path class="st2" d="M449.6,515c8.2-7.7,16.5-15.4,24.7-23.1c10.9-10.1,21.9-20.2,32.8-30.3c24.9-22.9,49.9-45.8,74.7-68.8
		c17.4-16.1,34.7-32.3,52.1-48.4c21-19.4,42.1-38.7,63.1-58c4.6-4.2,9.2-8.3,13.6-12.6c1.9-1.9,3.3-2.5,5.4-0.2
		c2,2.2,1.6,3.5-0.5,5.4c-23.6,21.6-47,43.3-70.5,65c-24.3,22.5-48.6,45.1-73,67.6c-30.9,28.6-61.9,57.2-92.9,85.8
		c-5.8,5.4-11.9,10.6-17.6,16.1C458,517.1,453.8,514.8,449.6,515z"/>
	<path class="st2" d="M514.6,445.7c6.4-8.9,12.8-17.8,19.2-26.7c13.2-18.1,26.4-36.2,39.6-54.2c2.2-3,4.3-6,6.5-8.9
		c2.3-3.1,4.7-3.5,7.3-0.7c3.7,4,7.1,8.3,10.8,12.3c1.4,1.6,0.4,2.2-0.6,3.2c-10.6,9.8-21.1,19.7-31.7,29.6
		c-11.3,10.5-22.7,21-34.1,31.4c-5.4,5-10.8,9.9-16.3,14.9C515.1,446.2,514.8,446,514.6,445.7z"/>
</g>
<g class="st1">
	<path class="st9" d="M387.7,375.6c-18.2,7.5-35.7,14.9-53.4,21.9c-7.6,3-14.5,1.2-20-4.7c-6.3-6.8-10.5-15.1-15.9-22.6
		c-1.4-2-2.7-4.2-4.1-6.2c-4.1-6.2-3-10.8,3.7-13.5c11.4-4.8,22.9-9.4,34.4-14c27.8-11.2,55.6-22.4,83.4-33.6
		c20.9-8.5,41.7-17.2,62.7-25.4c10-3.9,19.7-2.2,27.5,5.6c7.4,7.3,14.5,15,21.7,22.5c3.9,4.2,3.9,6.4-0.4,10.3
		c-5.7,5.1-13.1,6.9-19.9,9.8c-9.2,3.9-18.6,7.4-27.8,11.5c-2.6,1.2-3.8,0.6-5.3-1.5c-5.5-7.8-12.1-14.7-18.6-21.7
		c-9.6-10.2-21-12.5-33.6-8c-16.3,5.8-32.4,12.2-48.4,18.8c-6,2.5-11.3,6.4-10.8,14.4c0.2,2.3,1,4.2,2.3,6
		C372.6,355.1,380,365.2,387.7,375.6z"/>
	<path class="st9" d="M541.2,474.6c2.8-0.2,3.5,1.4,4.4,2.7c11.5,16.2,23,32.5,34.4,48.8c21.1,30.1,42.1,60.2,63.2,90.2
		c1.5,2.2,1.6,2.8-1,3.9c-16.7,7.2-33.4,14.6-49.9,22.1c-3,1.3-4,0.1-5.4-2.1c-17.6-26.9-35.3-53.9-53-80.7
		c-11.5-17.5-22.6-35.3-34.8-52.2c-2.2-3.1-2.8-7-5.5-9.9c-1-1.1,0.9-2.1,2.1-2.6c13-5.8,26-11.6,39-17.4
		C537,476.2,539.4,475.3,541.2,474.6z"/>
	<path class="st9" d="M541.2,460.8c2,8.8-4.2,12.5-10.3,14.4c-12.6,3.9-23.6,11.4-35.9,15.9c-3,1.1-3.6,1.3-4.2-2.2
		c-1-6.1-0.9-12.2-1.6-18.2c-1.5-13.2-4.9-25.9-9.6-38.2c-6.4-16.8-15.5-32-29.7-43.7c-1.7-1.4-2-2.1,0.5-3.2
		c15.2-6.6,30.3-13.3,45.3-20.3c3.4-1.6,4.9,0.5,6.7,2.1c11.8,10.5,20.2,23.4,26.5,37.8c5.3,12,7.3,24.9,10.2,37.7
		C540.7,448.9,539.6,455.1,541.2,460.8z"/>
	<path class="st9" d="M578.7,667c-21.6-31.5-42.6-62.1-63.6-92.8c-14.2-20.8-28.5-41.5-42.8-62.2c-1.4-2.1-2.4-4.2-2.2-6.9
		c0.8-10.1-2.9-19.5-4.7-29.2c-3.3-17.1-10.7-32.3-20.9-46.2c-1.7-2.3-2.9-5.1-4.3-7.6c-1-1.8-1.4-3.9-0.5-5.5
		c3.2-5.7,0.6-10.3-2.8-14.4c-2.1-2.5-1.8-4.2-0.2-6.4c0.2-0.2,0.3-0.5,0.5-0.8c5.2-7.2,7.2-7.3,13.6-1.3
		c13.2,12.5,21.7,27.9,27.5,44.7c3.4,9.9,6.4,20,7.7,30.4c1,7.9,1.9,16,1.4,24c-0.3,5.5,3.5,9.1,6.2,12.7
		c7.7,9.8,13.9,20.6,20.8,30.9c20,30.1,39.7,60.4,59.5,90.6c3.6,5.5,7.2,11.1,10.9,16.5c1.3,1.9,1.3,3.4,0.5,5.5
		C582.9,654.8,581,660.6,578.7,667z"/>
	<path class="st9" d="M538.8,615.4c-11.6-7.3-22.2-3.9-33.2,1.1c-10,4.6-20.1,9.2-30.7,12.5c-5.2,1.6-9-0.1-11.9-4.7
		c-13.5-21.5-27-43.1-40.5-64.7c-1-1.6-2.1-3.2-3-4.8c-2.7-5-2-6.8,3.2-9.3c16.5-7.9,34.2-13,51-20.4c1.7-0.7,2.8-0.6,4,1.1
		C498,555.9,518.4,585.6,538.8,615.4z"/>
	<path class="st9" d="M473.2,348.1c0.1,5.5-1.1,9.5,1,13.2c1,1.8-0.5,2.3-1.9,2.3c-3.5,0.1-7,0-10.5,1c-1.4,0.4-2.4-0.4-3.4-1.5
		c-2.8-3-5.4-6.2-7.6-9.6c-6.4-9.7-17.8-13.3-28.9-9c-12.3,4.9-24.6,9.9-36.8,15c-2.7,1.1-4.2,1.1-6-1.6
		c-3.5-5.4-7.4-10.5-11.4-15.6c-2.7-3.5-1.8-6.4,0.7-9.5c2.9-3.7,7.1-5.2,11.1-6.8c14.6-5.8,29.3-11.3,44-16.8
		c10-3.7,19.2-2.3,27.2,5c8.3,7.5,15.2,16.2,21.8,25.2C474.7,342.6,472.9,346.3,473.2,348.1z"/>
	<path class="st9" d="M370.3,402c5.6-2.3,10.3-4.2,14.9-6.2c1.6-0.7,4.4-1.1,3.3-3.6c-0.9-2.1-3-0.6-4.6,0.1
		c-15.7,6.7-31.3,13.4-47,20c-10.4,4.3-19.1,1.8-25.3-7.3c-5.8-8.6-11.5-17.3-17.2-25.9c-2.1-3.1-2.6-6.4-1.9-10.8
		c5.1,7.7,10.1,14.7,14.7,22.1c6,9.7,17.4,15.4,30.3,9.9c15.5-6.6,31.3-12.7,46.8-19.2c3.5-1.5,6.1-2.3,8.5,2
		c3.6,6.5,11,5.9,16.9,7.7c6,1.8,12.2,3.5,17.2,7.4c6.7,5.2,14,10.6,7.6,20.9c-4.3-5.8-10.9-3-16.5-3.8c-14.6-2-29.1-4.2-42.6-10.6
		C374.1,403.8,372.7,403.1,370.3,402z"/>
	<path class="st9" d="M455.6,365.9c-0.2,1.1-1.2,1.2-2,1.6c-12.8,6.4-25.7,12.7-38.4,19.3c-2,1-3.5,0.2-5.4,0
		c-8.1-0.9-14.3-4.2-18-11.8c-1.6-3.2-4.2-6-6.5-8.8c-1.3-1.5-1.4-2.3,0.6-3.1c13.8-5.5,27.4-11.4,41.3-16.3
		c6.9-2.4,13.3,0.9,18.1,6.1c3.5,3.7,6.4,8,9.5,12C455.1,365.2,455.4,365.6,455.6,365.9z"/>
	<path class="st9" d="M570.2,496.7c-5,2.5-7.6-1.3-10.1-5.6c-0.9-1.6-0.8-2.1,0.9-2.8c4.7-1.9,9.3-4.1,14-6.1
		c4.9-2.1,9.7-0.8,12.9,3.4c15.7,20.6,31.4,41.2,47.1,61.8c3.8,5,3.5,6.2-2.1,9.2c-5.7,3-11.3,6-17.1,9c-2.6,1.3-5.4-0.5-7.1-4.7
		c-1.2-2.9,1.5-2.4,2.9-3c8.8-3.6,11.3-7.9,11.3-14.5s-3.1-12-11.1-14.6c-3.3-1.1-6.3-0.4-9.4,0.7c-1,0.3-1.8,0.9-2.8,1.2
		c-9.5,3.7-9.4,3.6-15.4-4.9c-1.5-2.2-1.6-3.3,0.4-5.4c6.3-6.4,4.9-16.2-2.8-20.9C578.6,497.8,575,496.5,570.2,496.7z"/>
	<path class="st9" d="M418.8,560.9c7.6,12.1,15.2,24.2,22.8,36.3c6.1,9.8,12.3,19.6,18.5,29.3c4,6.2,10.9,8.3,17.9,5.5
		c11.9-4.8,23.8-9.4,35.5-14.7c10.4-4.8,19-1.7,27.1,4.7c7.1,5.6,11.8,13.3,17,20.6c1,1.4,0.7,2-0.9,2.4c-3.3,0.8-5.8,0.4-8-2.7
		c-3.3-4.8-7.1-9.3-12-12.8c-6.4-4.6-12.8-5.3-20.1-2c-12.6,5.8-25.3,11.2-38,16.6c-8.7,3.7-12.1,2.6-17.3-5.3
		c-13.6-21-27-42.1-40.8-63C417.3,571.1,418.3,566.2,418.8,560.9z"/>
	<path class="st9" d="M530.2,318.5c1.6,9.9,0.6,12.3-7.6,16.3c-7.9,3.8-15.9,7.2-24,10.6c-2.9,1.2-3.9,2.6-2.4,5.6
		c0.5,1,0.9,2.2,1.2,3.3c1.3,5.5,0.2,6.7-5.3,6.9c-2.9,0.1-5.8,0.8-8.7,1c-5.1,0.4-6.5-0.8-7-5.9c-0.5-4.4,0.9-8.7,1-13.1
		c0.1-2.2,2.1-2.3,3.4-2.8c12.1-5,24.3-9.9,36.4-14.7C521.7,323.8,525.9,321.4,530.2,318.5z"/>
	<path class="st10" d="M485.9,365.9c-7,3.1-14,6.2-20.9,9.3c-4.3,1.9-8.7,3.5-12.7,5.8c-8.4,4.8-17.8,4.1-27,4.9
		c11.7-5.8,23.4-11.7,35-17.5c2.7-1.4,5.8-0.3,8.6-1C474.4,366.2,480.2,366.7,485.9,365.9z"/>
	<path class="st10" d="M637.8,564c0.4,4-1.5,7-5.3,8.9c-2.9,1.5-5.7,3-8.5,4.6c-1.7,1-2.8,1.2-4.3-0.8c-4.6-6.4-4.7-6.3,2.4-10
		c3.6-1.9,7.2-3.8,10.8-5.8C637.8,558.4,637.8,558.4,637.8,564z"/>
	<path class="st11" d="M619.2,542.3c-6.9-7-13.9-5.2-20.8-1.9c-2.4,1.1-4.1,1-4.9-1.4c-0.8-2.4,1.6-2.2,2.9-2.7
		c3.8-1.4,7.3-3.6,11.5-3.7C613.8,532.3,617.2,535.1,619.2,542.3z"/>
	<path class="st12" d="M644.6,623.3c0.2,5.2-2.2,9.4-2.8,14.9c-2.3-3.3-4.1-5.9-5.9-8.5c-0.9-1.3-1-2.4,0.8-3.1
		C639.1,625.5,641.7,624.4,644.6,623.3z"/>
	<path class="st13" d="M566.6,501.4c10.1-1.9,16.3,1.3,18.5,9.3c-4.3-3.2-8.7-5.1-13.8-5.3C569,505.4,568.7,503,566.6,501.4z"/>
	<path class="st14" d="M436.3,389.2c0.1,0.5,0.1,0.8,0.1,0.8c-2.8,1.1-1.8,7-6.2,5.5c-2.7-1-5-3.2-8.6-4.1c1.1-0.6,1.5-0.9,1.9-0.9
		C427.8,390.5,431.9,388.8,436.3,389.2z"/>
	<path class="st15" d="M329.9,375.1c-5.1-0.7-10.4-1-14.5-5c-3.5-3.4-3.5-6.4-0.1-9.8c6.3-6.3,23.5-6.3,29.7-0.1
		c2.8,2.8,2.8,6.9-0.1,9.7C340.7,374.1,335.3,374.5,329.9,375.1z"/>
	<path class="st4" d="M494.2,309.8c-4.8-0.3-9.6-0.7-13.7-3.7c-4.4-3.2-4.6-7.9-0.5-11.4c6.6-5.6,21.7-5.6,28.4,0.1
		c4,3.4,4.1,7.2,0.1,10.7C504.4,309.1,499.3,309.4,494.2,309.8z"/>
	<path class="st16" d="M584.4,548.4c-0.1,1.7-1.5,2.2-2.6,2.7c-10.8,5-21.7,9.9-32.6,15c-1.8,0.8-2.6,0.3-3.5-1.2
		c-4.5-7-9-14-13.6-21c-1.4-2.1-0.9-3.3,1.5-4.3c10.9-4.6,21.7-9.4,32.5-14.2c1.6-0.7,2.7-0.9,3.8,0.6c4.7,7.1,9.4,14.1,14.1,21.1
		C584.2,547.7,584.3,548.1,584.4,548.4z"/>
	<path class="st17" d="M567.2,580.6c0-9.3,10-16.8,19.4-15c9.6,1.8,15,7.3,14.9,15.5c0,3.1,2.6,5.1,4.2,7.5
		c4.9,7.2,4.3,12.7-2.1,17.5c-6.3,4.6-15.2,3.7-19.6-2.3c-3.9-5.2-7.1-10.9-12.8-14.6C568.2,587.3,566.7,583.8,567.2,580.6z"/>
	<path class="st16" d="M532.5,522.3c-5.7,0.5-10.6-2.2-15-6c-3.9-3.4-4.2-8.6-0.8-14.4c5.5-9.3,22.1-10.4,27.6-4.8
		c4.1,4.2,6.5,10.9,4.7,15.5c-2.1,5.6-8.1,9.6-14.3,9.7C534.1,522.3,533.5,522.3,532.5,522.3z"/>
	<path class="st18" d="M451.5,405.4c-0.4,2.8-1.2,5.4-4.8,5.5c-3.1,0.1-6.4-4.3-6.4-8.2c0-3.1,1.4-5.1,4.6-5.3
		C448.3,397.1,451.6,401.1,451.5,405.4z"/>
	<path class="st19" d="M458.7,431.4c0.2,3.2-1.3,5.1-4.4,5.2c-3.4,0.2-6-3.4-6.1-7.7c-0.1-3.2,1.4-5.1,4.4-5.4
		C455.5,423.3,458.7,427.6,458.7,431.4z"/>
	<path class="st3" d="M477.7,614.8c-8.1,0-13.4-4.2-15.2-11.1c-1.6-6,1.1-12.8,6.9-15.6c7.1-3.3,14.4-6.3,21.8-8.7
		c7.4-2.3,14.9,1.8,17.4,8.7c2.7,7.4-0.5,15.4-8,18.6c-6.4,2.8-13,5.2-19.5,7.6C479.7,614.9,478,614.8,477.7,614.8z"/>
	<path class="st4" d="M443,556.7c0-6.2,3.7-10.6,11.3-13.4c7.4-2.8,17.2,0.5,21.2,7.2c3,4.8,2.3,10.3-1.7,15
		c-7.9,9.2-24.4,7.1-29.8-3.7C443.1,560.1,443.1,558.5,443,556.7z"/>
	<path class="st12" d="M316.7,366.9c-1.4-2.4,0-3.8,1.5-5c5.2-4.1,17.5-4.3,22.9-0.4c0.7,0.5,1.3,1.2,1.9,1.8
		c0.6,0.8,1.6,1.6,0.7,2.7c-0.9,1-1.8,0.3-2.7-0.2c-5.6-3.2-11.5-3.6-17.7-2C320.9,364.3,319.1,366.1,316.7,366.9z"/>
	<path class="st20" d="M507.9,300.8c-0.1,1.4-1,1.5-2.6,0.7c-7.6-4-15.2-4.3-22.5,0.6c-0.8,0.5-1.3,0.4-1.8-0.2
		c-0.7-0.8-1.2-1.6-0.5-2.7c0.9-1.4,2-2.6,3.5-3.2c7-2.9,14.1-3.1,21,0.4C507.4,297.6,508,298.7,507.9,300.8z"/>
	<path class="st10" d="M548.9,562.5c-1,0.2-1.3-0.8-1.8-1.5c-9-11.3-9-11.3,4.1-17c3.9-1.7,7.7-3.3,11.6-5.1
		c1.9-0.9,3.2-0.7,4.3,1.3c1,1.9,2.4,3.7,3.6,5.5c3.6,5.4,3.6,5.3-2.1,7.9c-5.6,2.5-11.1,5.1-16.7,7.6
		C551,561.6,550,562,548.9,562.5z"/>
	<path class="st21" d="M538.1,546c-1.1,0.1-1.4-1.1-1.8-1.9c-0.7-1.2,0.2-2,1.1-2.4c9.5-4.1,19-8.2,28.4-12.4c2.2-1,2.5,0.7,3.3,1.8
		c3.4,5,6.6,10,10,15c0.5,0.8,1.7,1.6,0.4,2.5s-2.5,0.6-3.4-0.7c-2.2-3.3-4.5-6.5-6.5-9.9c-1.9-3.3-3.8-4.3-7.7-2.3
		c-6.9,3.5-14.1,6.3-21.2,9.4C540,545.3,539.2,545.6,538.1,546z"/>
	<path class="st10" d="M583.7,591c-1.7-0.3-3.6,0-5.4-0.9c-5.4-2.4-8.9-7.2-8.1-11.2c1-5,6-9.3,11.6-9.7c3-0.2,6-0.2,9,1.2
		c5.2,2.5,7.8,6.3,7.1,11.2c-0.5,4-5.4,8.4-10.1,9.1C586.5,590.9,585.2,590.9,583.7,591z"/>
	<path class="st10" d="M581.6,594.7c7.2-0.2,13-1.7,17.1-7c0.6-0.8,1-1,2-0.2c5,4.3,6.2,10.7,2.4,14.6c-4.9,5-11.5,5-16.2-0.2
		C585.2,600,583.7,597.6,581.6,594.7z"/>
	<path class="st22" d="M532.7,496.9c7.4,0.7,11.7,4.2,11.6,11.5c0,1.3,0.1,2.6,0.3,3.9c0.1,0.8,0.3,1.8-0.3,2
		c-4.3,0.8-6.9,5.6-12,4.9c-4.8-0.7-8.3-3.1-11.6-6.4c-1.6-1.6-1.5-3.8-1.1-5.8C520.5,502.8,528.4,496.9,532.7,496.9z"/>
	<path class="st23" d="M445.3,401c1.4,1,2.6,2.2,2.8,4.1c0.1,1-0.3,1.8-1.4,1.7c-2-0.3-2.2-2-2.5-3.6
		C444,402.2,444.3,401.4,445.3,401z"/>
	<path class="st24" d="M454,433.2c-1.9-0.9-2.5-2.5-2.5-4.4c0-1,0.7-1.8,1.7-1.3c1.6,0.8,2.1,2.4,2.2,4
		C455.5,432.4,455.1,433.2,454,433.2z"/>
	<path class="st22" d="M506,591.8c-6.9-6.1-14-4.5-21.3-1.1c-6.1,2.8-12.9,4.2-18.8,8.7c-0.1-4.3,1.9-7,5-8.4
		c7.2-3.2,14.5-6.1,21.9-8.7C498.3,580.4,503.6,584.2,506,591.8z"/>
	<path class="st20" d="M473.5,556.5c-9.3-7.4-18.2-6.6-27.3,0.3c1.8-7.8,7.5-11.7,15.3-11C468.6,546.5,473.2,550.4,473.5,556.5z"/>
	<path class="st18" d="M574.3,581.5c0.4-1.8,1.8-2.3,3.3-2c4.2,0.7,6-0.9,5.3-5.2c-0.2-1-0.4-2.6,1.5-2.5c1.3,0.1,1.5,1.4,1.3,2.4
		c-0.6,4.3,1.1,5.6,5.2,4.4c1.3-0.4,3.3-0.6,3.2,1.7c0,1.8-1.7,1.8-3,1.7c-3.4-0.3-6.3,0-5.4,4.7c0.2,0.9-0.5,1.7-1.6,1.6
		c-1.2-0.1-1.3-1.1-1.2-2c0.6-3.9-1.6-3.9-4.5-3.4C576.9,583.1,575.1,583.6,574.3,581.5z"/>
	<path class="st25" d="M543,508.2c-0.4,1.6-1.7,1.6-2.8,1.7c-3.2,0.1-6.4,0.3-5.6,5c0.2,1-0.6,1.7-1.6,1.7c-1.2,0-2.1-0.9-1.9-1.9
		c0.6-3.8-1.7-3.7-4.4-3.6c-1.4,0.1-3.7,0.7-3.6-1.8c0-2.1,2.1-1.8,3.4-1.7c3.8,0.2,5.4-1.3,4.7-5.1c-0.3-1.3-0.2-2.9,1.6-3
		c2.4-0.2,2,1.8,1.9,3.1c-0.5,3.6,1,4.7,4.4,4.3C540.5,506.4,542.3,506.3,543,508.2z"/>
</g>
<g class="st1">
	<path class="st9" d="M491,649.5c-16.6,0-33.2-0.2-49.8,0.1c-11.6,0.2-21.2-4.5-29.6-11.6c-11.2-9.4-19.4-21.1-25.4-34.3
		c-1.7-3.8-3.7-5.4-8.1-5.1c-6.6,0.4-13.3-0.5-19.9,0.2c-12.7,1.4-22.9-12.7-17.2-26.2c5.6-13.3,8.6-27.4,11.6-41.5
		c3-14.3,4.2-28.8,5.8-43.2c0.1-1.3,0.1-2.6,0.1-3.9c-0.4-18.4,0.9-36.8,1.9-55.2c0.7-13.1,3.1-26,5.4-39c1.7-9.7,3.9-19.3,6.8-28.7
		c6.7-21.9,15.3-43.1,30.7-60.6c8.3-9.4,18-16.8,30.7-19.1c1.7-0.3,3.4-0.4,5.1-0.4c34.2,0,68.4,0,102.6-0.1
		c11,0,20.3,4.5,28.4,11.4c13.4,11.3,22.2,25.9,29.2,41.8c6.1,13.9,10.7,28.2,14.1,42.9c3.2,14.1,5.1,28.3,6.9,42.6
		c2.8,21.4,2.4,42.8,2.1,64.2c-0.2,14.4-2,28.6-4,42.9c-1.4,10-3.1,20.1-5.6,29.8c-6.5,25.2-14.9,49.8-31.5,70.5
		c-8.3,10.4-18.5,18.8-32,22c-2.3,0.6-4.6,0.6-6.8,0.6C525.3,649.5,508.2,649.5,491,649.5z"/>
	<path class="st3" d="M598.4,467.2c0.3,14.1-0.8,29.6-2.6,45c-3.5,29.6-9.8,58.4-23.6,85.1c-4.4,8.6-9.9,16.6-17.6,22.8
		c-8.8,7-18,7.3-26.8,0.3c-10.5-8.2-16.9-19.5-22.2-31.4c-10-22.5-15.5-46.2-18.7-70.5c-2.9-22-4.4-44.1-3.4-66.3
		c1.4-33.4,5.5-66.4,17.1-98.1c5.5-15.1,12.1-29.6,23.8-41.1c10.7-10.6,22.2-10.7,33-0.2c11.6,11.4,18.2,25.7,23.8,40.6
		c6.6,17.7,10.7,36.1,13.4,54.7c1.4,9.5,2.5,19.1,3,28.7C598.1,446.4,598.5,456,598.4,467.2z"/>
	<path class="st3" d="M396.8,367.8c1.8,6.3,3.2,12.3,5.2,18.1c2.9,8.7,6.4,17.2,12.2,24.6c8.6,11,21.5,11.7,29.3,1.6
		c2.9-3.8,4.3-8.4,5.2-13.1c2.1-11.1-1.6-21.3-5.1-31.5c-3-8.7-6.4-17.3-12.6-24.4c-5-5.8-11-9.2-18.9-8.2c-2.5,0.3-3.2-0.3-1.8-2.8
		c4.1-7.5,8.9-14.5,15.2-20.3c1.6-1.5,2.7-1.9,3.9,0.4c8.5,16.4,20.3,30.8,28.3,47.5c6.3,13.1,9.4,26.6,4.8,40.9
		c-2.7,8.4-8,15.2-13.4,22c-3.7,4.8-7.4,9.5-11,14.4c-8.4,11.5-10.4,24.2-7.4,38.1c2.7,12.5,6.1,24.8,7.9,37.5
		c1.6,11.7,0.1,23-5.1,33.7c-3.8,7.8-6.7,15.9-9.2,24.1c-1,3.3-2.6,4.5-6.1,4.4c-7.6-0.3-15.3-0.1-22.9-0.1c-1.1,0-2.6,0.5-3.1-0.8
		c-0.2-0.7,0.7-1.8,1.3-2.6c6.1-8.6,12.2-17.2,18.4-25.7c9.5-13.1,13.8-27.2,10-43.4c-3.1-12.8-3-26-3.7-39
		c-0.7-14-2.4-27.9-10-40.2c-1.9-3-3.9-6.1-6.3-8.7c-10.1-11-14.5-23.2-8.2-37.7C394.6,374,394.4,370.8,396.8,367.8z"/>
	<path class="st3" d="M388.9,402c5.3,11.3,15.8,19,20.1,31c4.5,12.4,5.1,25.3,5.7,38.2c0.5,12.1,1.8,24,4.1,36
		c1.8,9.5,0.5,19-4.4,27.6c-7.8,13.5-18.3,25.1-26.6,38.3c-0.9,1.4-2.2,1.7-3.7,1.7c-4.9,0-9.8-0.1-14.7,0c-2.9,0.1-3-0.9-2.2-3.3
		c4.8-13.7,8.1-27.9,10.7-42.2c1-5.5,1.8-11.1,2.5-16.6c0.3-2.5,1-3.7,4-3.7c14.9-0.3,23.2-8.9,23.7-23.9c0.9-25.2-7.8-47.9-18-70.2
		C387.3,409.1,387.2,409.2,388.9,402z"/>
	<path class="st3" d="M460.5,415.1c0.4,4.3,0.6,8.3-1.2,12.3c-6,13.4-10.8,27.2-11.8,42.1c-0.6,9.3,1.1,18.3,6.2,26
		c4,6,3,12.1,2.3,18.1c-2.3,18.8-5.7,37.5-10.8,55.8c-1.1,4-2.7,5.9-7,5.3c-2.5-0.4-5.2-0.1-7.8,0c-2.5,0.1-2.8-0.6-1.9-3
		c3-8.1,5.7-16.3,9.4-24.1c7-14.6,6.4-29.8,3.1-45.2c-2.2-10.1-4.7-20.1-6.6-30.3c-2.1-11.3-0.2-21.6,6.4-30.8
		C447.2,432.4,454,423.8,460.5,415.1z"/>
	<path class="st3" d="M445.4,392.5c0.1,6.8-1.4,13-5.8,18.1c-5.3,6.2-13.3,6.5-19.4,1s-9.3-12.7-12.2-20.1
		c-3.9-9.6-6.5-19.6-8.2-29.8c-0.4-2.6-0.6-5,0.7-7.5c1.2-2.4,1.9-5.1,3-7.6c3.5-8.3,11.5-10.8,19.4-5.9c2.6,1.6,4.9,3.6,6.6,6.1
		C438.8,360.6,443.5,376.1,445.4,392.5z"/>
	<path class="st3" d="M468,375.8c-2.1-6-4.1-12-6.9-17.6c-6.6-13.3-15.6-25.2-23.1-38c-2-3.4-3.8-6.8-5.9-10.1
		c-1.1-1.7-0.5-2.6,1-3.4c3.7-2.1,7.8-1.9,11.8-1.8c1.7,0.1,2,1.6,2.3,2.7c1.8,5.7,4.5,10.9,7.5,16c7.2,11.8,11.3,24.9,15.9,37.7
		C472.5,366.4,469.4,371,468,375.8z"/>
	<path class="st4" d="M386.7,418.5c5.4,8.9,8.9,18.5,11.9,28.2c3.9,12.6,6.7,25.3,5.7,38.6c-0.4,5.1-1.7,9.9-5.1,13.9
		c-4.3,5.1-10.2,5.9-16.5,5.8c-1.4,0-1.7-0.7-1.3-2c0.2-0.7,0.3-1.4,0.3-2.1c0.2-2.9-0.6-6.3,0.8-8.5c1.7-2.7,5.2-0.1,8-0.5
		c4.5-0.7,7.7-3.7,8.7-8.8c1.3-6.5-0.5-12.9-1.5-19.2c-1.9-11.7-5.6-22.8-11.5-33.3C384.1,426.6,385.8,422.6,386.7,418.5z"/>
	<path class="st3" d="M470.9,304.9c5.5-1.9,8.2,1.6,10.5,7.3c5,12.3,5.1,17-1.8,28c-1.1,1.7-1.9,1.3-2.8-0.1
		c-6-10.3-10.9-21.1-14.5-32.5c-0.7-2.2,0.2-2.8,2.3-2.7C466.4,305,468.1,304.9,470.9,304.9z"/>
	<path class="st3" d="M384.6,437.5c2.1,0.4,2.4,1.8,2.8,2.9c5.1,12.8,8.4,25.9,8.3,39.8c0,6.2-5.4,9.5-11.1,7
		c-1.4-0.6-2-1.4-1.8-2.9C384.1,468.8,382.7,453.2,384.6,437.5z"/>
	<path class="st3" d="M416.3,599.2c3.4-0.2,5.7-0.1,8,1.1c1.9,1,3.6,0.8,5.6-0.4c5-2.9,8.5-0.9,9.1,4.9c0.3,3.4,1.4,6.7,1.1,10.2
		c-0.3,3-1.5,4.5-4.6,4.2c-6.8-0.6-12.9-2.8-17.2-8.4c-1.5-1.9-3-3.9-4.2-6c-1-1.6-3.3-3.3-2.2-5.2
		C412.8,598.2,415.4,599.4,416.3,599.2z"/>
	<path class="st16" d="M471.2,567.4c3.5,6.1,3.7,10.5-0.9,15.2c-3.4,3.4-5.2,8.3-8.3,12.2c-3.8,4.8-2.6,11-1.8,16.7
		c0.5,3.4,1.6,6.7,2.1,10.1c0.2,1.1,2.1,3.6-0.9,3.5c-2.4-0.1-6,2.2-7.1-2.3c-1.1-4.4-0.3-8.9-1.1-13.3c-0.2-1.3-0.1-2.6-0.2-3.9
		c-0.5-4.7-0.6-8.5,4.9-11.2c5.6-2.7,8-8.6,9.7-14.5C468.6,576.1,469.8,572.1,471.2,567.4z"/>
	<path class="st3" d="M482.1,625.3c-4.6,1.5-6.4-1.9-7.9-6c-3-8.2-1.4-16.1,1.2-24c0.7-2.2,0.4-6,2.9-6c2.2,0,1.9,4,3.3,6
		c0.9,1.3,0.9,2.8,0.6,4.2c-1.4,7.4,0.8,14.2,3.9,20.8C488.5,625.3,488.5,625.3,482.1,625.3z"/>
	<path class="st4" d="M462.3,605c-0.3-6,2.8-10.7,6-15.4c1.5-2.3,3.3-4.3,5-6.5c0.7-0.8,1.2-2.6,2.5-1.8c1.1,0.7,1.6,2.2,1,3.8
		c-1.2,2.8-2.2,5.6-3.2,8.4c-3.4,9.7-5.2,19.4-0.3,29.2c0.8,1.7,0.3,2.2-1.5,2.4c-5.2,0.6-5.8,0.1-6.8-5
		C463.9,615.2,462.5,610.2,462.3,605z"/>
	<path class="st16" d="M472.7,356.1c-1.9-5.2-3.8-10.3-5.7-15.5c-3.6-10.1-9.7-18.8-14.2-28.5c-0.4-0.8-1.1-1.5-1.1-2.3
		c0-1.6-2.8-3.3-0.4-4.8c2.6-1.6,6.5,0.2,7.3,2.9c4,13.1,9.7,25.4,17.2,36.9c2.8,4.3-1.5,7.4-2,11.3
		C473.4,356.1,473,356.1,472.7,356.1z"/>
	<path class="st17" d="M457.5,494.2c-8.6-15.5-7.8-39.8,1.9-55C458.3,457.9,459.4,475.6,457.5,494.2z"/>
	<path class="st26" d="M447.6,615.2c-0.8-4.7-0.7-9.1-2.2-13.2c-0.7-2-0.2-2.8,1.9-3.2c1.9-0.3,2.9-0.1,3,2.2
		c0.5,7.3,1.1,14.6,1.7,21.9c0.3,3.4-2.2,2.2-3.8,2.4c-2.3,0.3-2.6-0.9-2.1-2.9C446.8,619.9,447.2,617.4,447.6,615.2z"/>
	<path class="st17" d="M498.3,624.7c-4.9,1.7-7.6,0-9.5-3.8c-2.4-4.8-4.5-9.6-4.8-15c0-0.8-0.5-1.8,0.7-2.1c1-0.2,1.1,0.7,1.4,1.3
		C489.7,611.7,493.6,618.2,498.3,624.7z"/>
	<path class="st27" d="M430.7,621.7c10.8,0.6,12.7-1.7,11.1-12.4c-0.4-2.7-0.7-5.4-1.5-8c-0.3-0.8-0.4-1.7,0.8-2
		c1-0.3,1.7,0.3,1.9,1.2c1.9,7.4,3.7,14.8,0.9,22.4c-0.6,1.7-1.7,2.5-3.6,2.4C436.7,625.3,433.5,624,430.7,621.7z"/>
	<path class="st17" d="M488.9,320.1c-2.2-4.9-4.2-9.2-6.1-13.5c-0.2-0.4-0.1-1.5,0-1.5c3-0.4,6.4-1.3,8.8,0.3c1.9,1.2,4.1,3.9,2,7
		C492.1,314.8,490.8,317.1,488.9,320.1z"/>
	<path class="st9" d="M575.9,465.6c0.2,20.5-1.4,40.8-9.7,60c-2.3,5.4-5.6,10-9.9,14c-8.4,7.7-18.6,8-27.4,0.8
		c-8-6.6-11.6-15.6-14.5-25c-6.7-22.1-7.3-44.9-5.9-67.7c1-16,3.8-32,11.5-46.6c3.8-7.2,8.7-13.4,17-15.6
		c10.2-2.7,19.5,2.2,25.8,12.7c6,10.1,8.8,21.2,10.8,32.5c1,5.8,1.8,11.7,2.1,17.5C576.2,454.1,575.9,459.9,575.9,465.6z"/>
	<path class="st12" d="M380.4,536.2c0-5.5,7.3-11.5,12.7-10.3c4.1,0.9,5.6,4.2,3.3,7.8c-2.4,3.6-5.9,5.9-10.1,7
		C383.2,541.5,380.4,539.3,380.4,536.2z"/>
	<path class="st21" d="M413,370.3c0-4.1,0.3-7,3.3-8.2c2.8-1.2,5,0.7,6.8,2.6c6,6.1,10,13.3,12,21.6c0.4,1.5,0.6,3.2,0.3,4.7
		c-0.6,3.2-2,6.1-5.4,7.2c-3.3,1.1-5.5-1-7.3-3.3C416.7,387.3,414.2,378.4,413,370.3z"/>
	<path class="st3" d="M542.7,412.2c4.5,9.3,6.5,18.8,7.6,28.5c2.5,22.9,2.5,45.7-3.9,68c-0.6,2.2-1.6,4.3-2.4,6.5
		c-0.4,1-0.5,2.6-1.9,2.4c-1.3-0.1-1.4-1.6-1.8-2.7c-4.8-12.2-6.6-25-7.3-37.9c-1-19.9-0.2-39.7,6.4-58.8
		C540.1,416.3,540.4,414,542.7,412.2z"/>
	<path class="st28" d="M393.9,530.9c-0.7,2.1-2.5,3.4-4.2,4.5c-1.4,0.9-2.8,2.3-4.6,1.7c-1.1-0.4-0.9-1.8-0.4-2.7
		c1.6-2.9,3.8-5.1,7.3-5.2C392.9,529.4,393.7,529.7,393.9,530.9z"/>
	<path class="st16" d="M431.9,389.1c-0.2,2.3-0.3,4.3-2.5,5c-2,0.6-3.2-0.7-4.3-2.2c-4.9-7-7.3-14.9-8.3-23.3
		c-0.1-1.1-0.3-2.5,1.1-3c0.9-0.4,1.6,0.3,2.3,0.9C426.7,372.8,430.4,380.6,431.9,389.1z"/>
</g>
<g>
	<path class="st8" d="M680.1,474.2c5,21.8-10.4,30.7-25.4,35.3c-31.1,9.5-58,28-88.5,39.1c-7.4,2.6-8.8,3.1-10.2-5.4
		c-2.5-14.9-2.2-29.9-3.9-44.9c-3.9-32.2-11.8-63.7-23.7-93.9c-15.8-41.4-38.3-78.7-73-107.5c-4.2-3.6-5-5.3,1.1-7.7
		c37.3-16.4,74.5-32.9,111.6-50.1c8.4-3.9,11.9,1.1,16.4,5.1c29.1,25.7,49.7,57.6,65.2,92.8c13,29.6,18.1,61.4,25.1,92.7
		C678.9,444.9,676.1,460.2,680.1,474.2z"/>
	<path class="st8" d="M512.6,197.1c0.2,13.5-2.8,23.2,2.5,32.5c2.5,4.5-1.2,5.6-4.8,5.7c-8.7,0.2-17.2,0-25.7,2.5
		c-3.6,1.1-5.9-1.1-8.4-3.7c-7-7.3-13.2-15.2-18.8-23.7c-15.8-24-43.9-32.9-71.1-22.2c-30.4,11.9-60.4,24.3-90.5,36.9
		c-6.7,2.8-10.4,2.8-14.7-4c-8.7-13.3-18.3-25.9-28-38.4c-6.7-8.5-4.3-15.8,1.5-23.2c7.1-9,17.5-12.9,27.3-16.7
		c36-14.1,72.1-27.7,108.3-41.2c24.6-9.1,47.3-5.7,66.9,12.2c20.3,18.6,37.5,40,53.6,62.1C516.5,183.5,512,192.6,512.6,197.1z"/>
	<path class="st8" d="M259.6,329.6c13.6-5.7,25.3-10.4,36.6-15.3c3.9-1.7,10.8-2.6,8.2-8.8c-2.2-5.3-7.4-1.5-11.3,0.2
		c-38.6,16.4-77,32.9-115.6,49.3c-25.6,10.7-47,4.5-62.3-17.8c-14.4-21.1-28.2-42.6-42.5-63.8c-5.1-7.6-6.4-15.8-4.6-26.5
		c12.6,18.9,24.8,36.3,36.1,54.4c14.7,23.7,42.8,37.8,74.5,24.3c38.3-16.1,76.9-31.3,115.3-47.3c8.7-3.6,15.2-5.7,20.9,5
		c8.8,16,27.1,14.4,41.7,18.9c14.6,4.5,29.8,8.4,42.2,18c16.6,12.9,34.4,26,18.8,51.4c-10.4-14.3-26.8-7.4-40.6-9.3
		c-36-5-71.6-10.2-104.8-26C269,334.2,265.5,332.4,259.6,329.6z"/>
	<path class="st8" d="M469.2,240.8c-0.6,2.8-2.9,3.1-4.8,4c-31.6,15.7-63.1,31.3-94.5,47.4c-5,2.5-8.7,0.5-13.3,0
		c-19.8-2.2-35.2-10.2-44.3-29.1c-3.9-7.9-10.2-14.7-16.1-21.5c-3.1-3.7-3.4-5.7,1.4-7.7c33.9-13.5,67.4-28.2,101.8-40.1
		c16.9-5.9,32.7,2.3,44.6,15c8.5,9.1,15.7,19.7,23.4,29.6C468.1,239.1,468.8,240,469.2,240.8z"/>
	<path class="st8" d="M751.4,562.7c-12.2,6.2-18.6-3.1-24.8-13.6c-2.3-3.9-2-5.1,2.3-6.8c11.6-4.6,22.9-10.1,34.4-14.9
		c11.2-5.4,24.6-1.9,31.8,8.4c38.6,50.8,77.3,101.5,116.1,152.2c9.3,12.2,8.7,15.2-5.3,22.6c-13.9,7.3-27.9,14.7-42,22.2
		c-6.4,3.3-13.2-1.2-17.5-11.6c-2.9-7.3,3.7-6,7.1-7.4c21.5-8.8,27.7-19.4,27.9-35.5c0-16.1-7.4-29.4-27.3-35.8
		c-8.1-2.6-15.7-0.9-23.1,1.7c-2.5,0.8-4.5,2.2-6.8,3.1c-23.4,9-23.2,8.8-38-12.1c-3.7-5.4-4-8.1,1.1-13.2c15.5-15.7,11.9-40-7-51.4
		C771.6,564.8,761.6,562.2,751.4,562.7z"/>
	<path class="st8" d="M378.7,720.6c18.6,29.8,37.3,59.5,56.1,89.4c15.2,24,30.2,48.2,45.4,72.2c9.9,15.3,27,20.5,44.3,13.5
		c29.1-11.9,58.7-23.1,87.2-36.3c25.6-11.8,46.8-4.2,66.8,11.6c17.5,13.8,29.1,32.9,41.8,50.8c2.5,3.4,1.9,5-2.2,5.9
		c-8.1,1.9-14.4,1.1-19.7-6.7c-7.9-12.1-18-22.8-29.6-31.5c-15.7-11.3-31.6-13-49.4-5c-30.8,14.3-62.1,27.6-93.4,40.8
		c-21.4,9.1-29.9,6.4-42.5-13c-33.5-51.6-66.5-103.7-100.4-155C375.2,745.7,377.6,733.6,378.7,720.6z"/>
	<path class="st8" d="M653,124.3c4,24.2,1.5,30.4-18.8,40.1c-19.4,9.3-39.2,17.8-59,26c-7.3,2.9-9.6,6.5-5.9,13.6
		c1.2,2.6,2.3,5.3,2.9,8.1c3.1,13.5,0.5,16.6-13.2,17c-7.1,0.3-14.3,1.9-21.4,2.5c-12.7,0.9-16.1-1.9-17.2-14.6
		c-1.1-10.8,2.2-21.4,2.5-32.2c0.2-5.4,5.3-5.6,8.5-7c29.8-12.2,59.7-24.3,89.6-36.3C632.4,137,643.1,131.2,653,124.3z"/>
	<path class="st29" d="M543.9,240.8l-51.4,22.9c-10.5,4.6-21.4,8.7-31.3,14.3c-20.8,11.9-43.9,10.1-66.6,12.1
		c28.7-14.4,57.5-28.7,86.3-42.9c6.7-3.4,14.1-0.9,21.2-2.5C515.7,241.4,529.8,242.8,543.9,240.8z"/>
	<path class="st8" d="M917.9,728.3c0.9,9.9-3.7,17.2-13,21.8c-7,3.6-13.9,7.4-20.8,11.2c-4.2,2.5-7,2.9-10.5-2
		c-11.3-15.7-11.5-15.5,5.9-24.5c8.8-4.6,17.7-9.5,26.5-14.1C917.9,714.4,917.9,714.4,917.9,728.3z"/>
	<path class="st8" d="M871.8,674.9c-16.9-17.2-34.2-12.9-51.1-4.8c-5.9,2.8-10.1,2.5-11.9-3.4c-2-5.9,3.9-5.6,7.1-6.7
		c9.3-3.4,18-9,28.2-9.1C858.5,650.4,867,657.2,871.8,674.9z"/>
	<path class="st8" d="M742.4,574.3c24.9-4.6,40,3.3,45.4,22.9c-10.5-7.9-21.4-12.6-33.9-12.9C748.5,584.2,747.5,578.2,742.4,574.3z"
		/>
	<path class="st30" d="M422,298.3c0.2,0.6,0.2,1.2,0.3,1.9c-6.8,2.8-4.5,17.2-15.2,13.5c-6.7-2.5-12.2-7.7-21.1-10.2
		c2.8-1.4,3.7-2.2,4.6-2.2C401,301.2,411.1,297.2,422,298.3z"/>
	<path class="st8" d="M646.5,92.2c-17.7-18.4-35-37.3-53.3-55.3c-19.4-19.1-43.1-23.1-67.7-13.6c-51.6,20-102.7,41.7-154.2,62.5
		c-68.3,27.6-136.8,55.2-205.2,82.8c-28.4,11.3-56.6,22.8-84.6,34.4c-16.6,6.8-19.4,18.1-9.1,33.3c3.4,5.1,6.5,10.4,10.1,15.3
		c13.2,18.4,23.4,38.9,39.1,55.6c13.6,14.4,30.7,18.9,49.3,11.5c43.5-17.5,86.8-35.8,131.4-54.1c-18.9-25.4-37.2-50.4-55.5-75
		c-3.4-4.2-5.4-9.3-5.7-14.7c-1.4-19.7,11.8-29.3,26.5-35.5c39.4-16.3,79-31.8,119.2-46.2c31.1-11,59.2-5.4,82.8,19.7
		c16,17,32.1,34.1,45.7,53.3c3.7,5.1,6.5,6.5,13,3.7c22.5-9.9,45.7-18.8,68.3-28.2c16.7-7.1,34.9-11.6,49-24.2
		C656.1,108,656.3,102.4,646.5,92.2z M197.9,250.1c-0.3,0.3-0.6,0.6-0.9,0.9c-10.2,9.9-23.7,11-37,12.4
		c-12.7-1.7-25.7-2.5-35.6-12.2c-8.5-8.4-8.7-15.8-0.3-24c15.5-15.3,57.8-15.5,73.1-0.2C203.6,233.2,204.1,243.4,197.9,250.1z
		 M599.7,92.2c-10.2,8.8-22.8,9.6-35.3,10.5c-11.9-0.8-23.7-1.7-33.8-9.1c-10.8-8.1-11.3-19.4-1.1-28c16.3-13.8,53.3-13.8,69.9,0.2
		C609.3,74.1,609.5,83.5,599.7,92.2z"/>
	<path class="st8" d="M786.9,924.2c-9.1-13.3-18-27-26.8-40.6c-48.8-74.4-97.2-148.9-146.4-223c-16.9-25.4-32.2-51.9-51.1-76.1
		c-6.7-8.7-16.1-17.7-15.2-31.1c1.4-19.7-0.8-39.5-3.3-59c-3.3-25.4-10.7-50.4-19.1-74.7c-14.3-41.7-35.3-79.5-67.7-110.2
		c-15.7-14.9-20.6-14.6-33.3,3.1c-0.5,0.6-0.6,1.2-1.1,1.9c-4,5.4-4.6,9.6,0.5,15.8c8.4,10.1,14.7,21.4,6.8,35.3
		c-2,4.3-1.5,9.5,1.2,13.5c3.6,6.2,6.5,13,10.7,18.8c25.1,34.2,43.4,71.7,51.4,113.7c4.5,23.9,13.6,47,11.6,71.7
		c-0.5,6.2,1.5,12.2,5.3,17c35.2,51,70.4,102,105.4,153.1c51.8,75.3,103.4,150.8,156.5,228.3c5.6-15.8,10.2-30.1,15.7-43.9
		C790.2,932.6,790.2,929,786.9,924.2z M431.9,331.4c0-7.6,3.6-12.4,11.2-13c8.4-0.9,16.4,9,16.4,19.5c-0.9,6.8-3.1,13.3-11.8,13.6
		C439.9,351.9,431.9,341.1,431.9,331.4z M466.1,414.8c-8.4,0.5-14.7-8.4-15-18.8c-0.2-7.9,3.6-12.6,10.8-13.2
		c7.3-0.8,15,9.8,15,19.1C477.6,409.9,473.9,414.5,466.1,414.8z"/>
	<path class="st8" d="M523.5,635c-2.9-4.2-5.7-4.5-9.9-2.6c-41.2,18.3-84.8,30.7-125.5,50.2c-12.9,6-14.7,10.7-7.9,22.9
		c2.3,4.2,5,7.9,7.4,11.9c33.3,53.2,66.5,106.2,99.8,159.1c7.1,11.5,16.4,15.5,29.3,11.5c26.2-8.1,51-19.4,75.6-30.7
		c27-12.4,53.2-20.6,81.7-2.6C623.7,781.5,573.5,708.3,523.5,635z M440.7,722.7c-1.7-3.7-2.6-8.1-2.3-12.4c0-15.3,9.1-26,27.7-33
		c18.6-6.8,42.2,1.4,52.2,17.7c7.3,11.9,5.7,25.3-4.2,36.9C494.8,754.5,454,749.2,440.7,722.7z M580.3,833.4
		c-15.8,6.8-31.9,12.7-48,18.8c-2.8,0.9-5.7,1.2-8.7,1.2c-19.8,0-32.9-10.4-37.3-27.3c-3.9-14.7,2.6-31.6,17-38.4
		c17.4-8.4,35.3-15.5,53.8-21.4c17.7-5.4,36.6,3.9,42.9,21.4C607,805.8,598.3,826.1,580.3,833.4z"/>
	<path class="st31" d="M127.7,243.1c-3.4-5.9,0-9.3,3.7-12.2c12.7-10.2,43.1-10.7,56.4-0.9c1.7,1.2,3.3,2.8,4.6,4.5
		c1.5,1.9,4,4,1.9,6.5c-2.2,2.6-4.5,0.6-6.7-0.6c-13.8-7.9-28.4-8.8-43.7-5C137.9,236.9,133.4,241.4,127.7,243.1z"/>
	<path class="st32" d="M598.2,80.6c-0.3,3.4-2.5,3.9-6.4,1.9c-18.8-9.9-37.3-10.5-55.5,1.4c-1.1,1.1-2.9,1.1-4,0
		c-0.2-0.2-0.3-0.3-0.3-0.5c-1.7-2-2.9-4-1.2-6.8c2-3.4,5.1-6.2,8.7-7.7c17.2-7.1,34.7-7.6,51.6,0.9
		C596.9,72.7,598.5,75.4,598.2,80.6z"/>
	<path class="st29" d="M699,724.6c-2.5,0.5-3.1-2-4.3-3.6c-22.2-27.9-22.2-27.9,10.1-41.8c9.5-4.2,19.1-8.2,28.5-12.6
		c4.6-2.2,7.9-1.7,10.5,3.1c2.6,4.8,5.9,9.1,8.8,13.5c8.8,13.2,8.8,13.2-5.1,19.4c-14.1,6.4-27.4,12.6-41.1,18.8
		C704.2,722.4,701.7,723.4,699,724.6z"/>
	<path class="st33" d="M672.4,684c-2.6,0.3-3.3-2.6-4.5-4.6c-1.7-2.9,0.5-5,2.8-6c23.2-10.2,46.8-20.1,69.9-30.5
		c5.4-2.5,6.2,1.9,8.1,4.5c8.4,12.2,16.4,24.6,24.6,36.9c1.2,2,4.3,3.9,1.1,6.2s-6,1.5-8.2-1.9c-5.3-8.2-11-16-16-24.5
		c-4.8-8.4-9.3-10.5-18.8-5.7c-16.9,8.7-34.7,15.5-52.1,23.1C677,682.3,675,682.9,672.4,684z"/>
	<path class="st29" d="M784.7,794.8c-4.2-0.8-8.8,0-13.3-2.2c-13.2-6-21.8-17.7-20-27.6c2.5-12.2,14.7-22.9,28.5-24
		c7.4-0.6,14.7-0.6,22.2,2.9c12.9,6.2,19.2,15.5,17.7,27.6c-1.2,9.9-13.3,20.8-24.8,22.5C791.6,794.5,788.3,794.3,784.7,794.8z"/>
	<path class="st29" d="M779.5,803.8c17.7-0.5,31.9-4.2,42.2-17.2c1.5-1.9,2.5-2.5,5-0.5c12.2,10.7,15.2,26.5,5.9,36
		c-11.9,12.2-28.2,12.2-39.8-0.5C788,815.9,783.5,810,779.5,803.8z"/>
	<path class="st34" d="M659.2,563.3c18.1,1.7,28.7,10.4,28.5,28.2c0,3.3,0.2,6.5,0.6,9.6c0.3,1.9,0.8,4.5-0.8,5
		c-10.7,2-17,13.8-29.6,12.1c-11.8-1.5-20.5-7.7-28.4-15.7c-4-4-3.7-9.3-2.6-14.3C629.2,577.7,648.5,563,659.2,563.3z"/>
	<path class="st35" d="M444,327.1c3.6,2.2,6.2,5.7,7,9.9c0.3,2.5-0.8,4.5-3.4,4c-5-0.8-5.4-5-6.2-8.8
		C440.7,330.1,441.8,327.9,444,327.1z"/>
	<path class="st36" d="M465.5,406.5c-4.2-1.9-6.5-6.2-6-10.7c0-2.5,1.7-4.5,4.2-3.3c3.9,1.9,5.1,5.9,5.4,9.9
		c0.5,1.9-0.8,3.7-2.6,4.2C466.1,406.5,465.8,406.5,465.5,406.5z"/>
	<path class="st34" d="M593.4,796.8c-17-14.9-34.4-11-52.5-2.8c-15.2,7-31.8,10.4-46.2,21.4c-0.3-10.5,4.6-17.2,12.2-20.8
		c17.7-7.7,35.6-15.2,53.9-21.4C574.6,768.6,587.5,778.1,593.4,796.8z"/>
	<path class="st32" d="M513.4,709.7c-22.9-18.1-44.9-16.3-67.1,0.8c4.3-19.2,18.3-28.8,37.5-27.1
		C501.3,685.2,512.6,694.8,513.4,709.7z"/>
	<path class="st8" d="M931,857.1C879.1,783,827.4,709.1,775.4,635c-28.2-40.1-56.4-80.1-84.6-120.1c-2.3-3.3-4-7.1-10.8-6.7
		c-4.3,1.9-10.2,4-16.3,6.5c-31.9,14.3-63.8,28.5-95.9,42.8c-3.1,1.4-7.6,3.7-5.1,6.5c6.5,7.3,8.1,16.9,13.5,24.5
		c30.1,41.7,57.2,85.5,85.5,128.5c43.7,66.2,87.1,132.3,130.5,198.7c3.6,5.3,6,8.4,13.5,5.1c40.9-18.4,81.8-36.4,122.9-54.2
		C934.9,863.9,934.7,862.4,931,857.1z M619.7,575.7c13.5-22.8,54.5-25.7,67.9-11.9c10.1,10.4,16,26.8,11.6,38.1
		c-5.9,14.3-19.7,23.7-35.2,24l-5.4-0.2c-14.1,1.2-26.2-5.4-36.9-14.7C612.1,602.6,611.3,589.8,619.7,575.7z M691.1,730.8
		c-11-17.2-22.2-34.4-33.3-51.6c-3.4-5.3-2.3-8.1,3.6-10.5c26.8-11.3,53.3-22.9,80-34.9c3.9-1.7,6.7-2.3,9.3,1.5
		c11.6,17.4,23.2,34.7,34.9,52.1c0.3,0.8,0.6,1.7,0.9,2.6c-0.3,4.2-3.7,5.4-6.5,6.8c-26.7,12.2-53.5,24.5-80.1,36.9
		C695.3,735.8,693.5,734.5,691.1,730.8z M833.4,831.7c-15.7,11.6-37.3,9.1-48.2-5.6c-9.6-12.9-17.4-26.8-31.6-36
		c-7-4.5-10.8-12.7-9.8-21.1c0-22.9,24.6-41.2,47.6-36.9c23.6,4.3,36.9,17.8,36.7,38.1c0,7.6,6.5,12.7,10.4,18.4
		C850.4,806.6,849,820.1,833.4,831.7z"/>
</g>
</svg>
