<svg id="Capa_1" data-name="Capa 1" xmlns="http://www.w3.org/2000/svg" viewBox="0 0 352.67 391.62"><defs><style>.cls-1{fill:#fba61f;}.cls-2{fill:#fba720;}.cls-3{fill:#fba824;}.cls-4{fill:#fba926;}.cls-5{fill:#fbaa27;}.cls-6{fill:#fbab2c;}.cls-7{fill:#fefdfd;}.cls-8{fill:#fefefd;}.cls-9{fill:#fefdfc;}.cls-10{fill:#fefdfb;}.cls-11{fill:#fefcfa;}.cls-12{fill:#fefbf6;}.cls-13{fill:#fefefe;}.cls-14{fill:#fba823;}.cls-15{fill:#fba822;}.cls-16{fill:#fba721;}.cls-17{fill:#fcb545;}.cls-18{fill:#fbad31;}.cls-19{fill:#fefcf8;}</style></defs><title>LOGO 5</title><path class="cls-1" d="M387.66,375.55C369.5,383,351.93,390.4,334.24,397.5c-7.55,3-14.46,1.21-20-4.68-6.33-6.77-10.5-15.13-15.86-22.63-1.44-2-2.73-4.16-4.12-6.23-4.14-6.16-3-10.78,3.7-13.55q17.14-7.12,34.39-14,41.69-16.85,83.39-33.65c20.9-8.46,41.67-17.23,62.69-25.36,10-3.86,19.65-2.22,27.5,5.56,7.4,7.33,14.49,15,21.66,22.51,3.94,4.16,3.89,6.43-.45,10.29-5.72,5.07-13.1,6.92-19.93,9.8C498,329.43,488.6,333,479.42,337c-2.63,1.15-3.8.55-5.26-1.49-5.54-7.79-12.08-14.71-18.59-21.68-9.56-10.22-21-12.48-33.63-8-16.3,5.84-32.44,12.17-48.44,18.77-6,2.49-11.32,6.4-10.77,14.39a10.64,10.64,0,0,0,2.31,6C372.56,355.07,380,365.2,387.66,375.55Z" transform="translate(-291.9 -275.37)"/><path class="cls-1" d="M541.17,474.62c2.77-.22,3.47,1.4,4.38,2.68q17.21,24.38,34.37,48.78,31.62,45.12,63.23,90.25c1.53,2.17,1.58,2.75-1,3.87q-25,10.83-49.93,22.07c-3,1.34-4,.07-5.45-2.08q-26.43-40.41-53-80.75C522.27,542,511.22,524.19,499,507.22c-2.22-3.06-2.85-7-5.46-9.92-1-1.15.85-2.08,2.05-2.62q19.53-8.7,39-17.4C537,476.23,539.41,475.33,541.17,474.62Z" transform="translate(-291.9 -275.37)"/><path class="cls-1" d="M541.25,460.76c2,8.85-4.19,12.47-10.31,14.37C518.3,479,507.36,486.51,495,491c-3,1.07-3.58,1.26-4.16-2.21-1-6.06-.87-12.18-1.56-18.25a155.54,155.54,0,0,0-9.61-38.15c-6.42-16.81-15.54-32-29.65-43.72-1.73-1.44-2-2.12.46-3.18,15.17-6.65,30.32-13.34,45.34-20.32,3.37-1.57,4.88.47,6.69,2.08,11.84,10.47,20.2,23.41,26.54,37.75,5.32,12.05,7.34,24.95,10.23,37.67C540.73,448.85,539.64,455.06,541.25,460.76Z" transform="translate(-291.9 -275.37)"/><path class="cls-1" d="M578.7,667c-21.58-31.48-42.58-62.13-63.61-92.77q-21.38-31.14-42.8-62.23a10.22,10.22,0,0,1-2.15-6.92c.81-10.08-2.87-19.49-4.73-29.16-3.28-17.07-10.69-32.29-20.93-46.23-1.71-2.34-2.87-5.08-4.34-7.6a5.64,5.64,0,0,1-.5-5.49c3.19-5.69.64-10.29-2.78-14.36-2.09-2.49-1.81-4.23-.2-6.43.17-.24.28-.52.45-.75,5.18-7.21,7.17-7.31,13.55-1.26,13.16,12.49,21.7,27.86,27.54,44.75,3.42,9.87,6.44,20,7.74,30.36,1,7.93,1.86,16,1.35,24-.35,5.48,3.45,9.12,6.2,12.66,7.66,9.85,13.9,20.59,20.77,30.92,20,30.08,39.69,60.4,59.49,90.62,3.62,5.52,7.15,11.08,10.92,16.48,1.34,1.93,1.34,3.39.47,5.54C582.86,654.77,581,660.56,578.7,667Z" transform="translate(-291.9 -275.37)"/><path class="cls-1" d="M538.75,615.39c-11.57-7.32-22.22-3.94-33.19,1.07-10,4.59-20.12,9.21-30.71,12.46-5.21,1.61-9,0-11.92-4.68q-20.3-32.31-40.54-64.66c-1-1.61-2.09-3.17-3-4.83-2.75-5-2-6.85,3.23-9.34,16.55-7.93,34.23-13,51-20.43,1.68-.74,2.84-.65,4,1.09Q508.12,570.77,538.75,615.39Z" transform="translate(-291.9 -275.37)"/><path class="cls-1" d="M473.19,348.11c.07,5.51-1.12,9.45,1,13.25,1,1.84-.49,2.26-1.94,2.3-3.51.09-7,0-10.46,1-1.45.42-2.41-.45-3.39-1.48a69.91,69.91,0,0,1-7.64-9.61c-6.44-9.75-17.81-13.35-28.88-9q-18.47,7.32-36.79,15c-2.68,1.12-4.21,1.12-6-1.62-3.5-5.39-7.45-10.5-11.39-15.59-2.7-3.49-1.76-6.4.66-9.47,2.89-3.66,7.09-5.22,11.11-6.8,14.59-5.76,29.29-11.28,44-16.77,10-3.74,19.18-2.33,27.19,5,8.26,7.54,15.23,16.22,21.79,25.23C474.74,342.59,472.9,346.31,473.19,348.11Z" transform="translate(-291.9 -275.37)"/><path class="cls-1" d="M370.35,402c5.57-2.33,10.26-4.23,14.89-6.25,1.6-.7,4.41-1.1,3.35-3.56-.91-2.12-3-.6-4.59.06-15.67,6.66-31.32,13.37-47,20-10.36,4.34-19.1,1.82-25.29-7.27-5.84-8.59-11.46-17.33-17.25-25.95-2.07-3.1-2.61-6.42-1.87-10.79,5.11,7.67,10.1,14.75,14.66,22.09,6,9.65,17.35,15.39,30.32,9.91,15.54-6.57,31.26-12.74,46.85-19.21,3.5-1.45,6.14-2.32,8.53,2,3.6,6.5,11,5.87,16.93,7.69S422,394.12,427,398c6.71,5.22,14,10.57,7.63,20.92-4.25-5.8-10.9-3-16.5-3.8-14.64-2-29.11-4.17-42.6-10.6C374.15,403.85,372.73,403.14,370.35,402Z" transform="translate(-291.9 -275.37)"/><path class="cls-1" d="M455.56,365.92c-.23,1.13-1.18,1.24-1.95,1.63-12.82,6.39-25.66,12.74-38.42,19.26-2,1-3.55.18-5.39,0-8.07-.9-14.27-4.16-18-11.83-1.57-3.22-4.18-6-6.53-8.78-1.28-1.53-1.41-2.34.59-3.13,13.77-5.48,27.37-11.43,41.35-16.3,6.86-2.39,13.27.94,18.11,6.13,3.48,3.73,6.38,8,9.54,12C455.13,365.23,455.35,365.6,455.56,365.92Z" transform="translate(-291.9 -275.37)"/><path class="cls-1" d="M570.23,496.72c-5,2.52-7.58-1.29-10.08-5.55-.93-1.58-.83-2.07.94-2.78,4.73-1.87,9.32-4.07,14-6.06A10.33,10.33,0,0,1,588,485.72q23.55,30.94,47.14,61.85c3.79,5,3.5,6.19-2.14,9.17s-11.35,6-17.05,9c-2.58,1.34-5.37-.48-7.11-4.74-1.2-2.93,1.51-2.44,2.9-3,8.76-3.59,11.3-7.87,11.31-14.45S620,531.6,611.94,529c-3.3-1.08-6.34-.4-9.4.67-1,.34-1.85.89-2.8,1.25-9.51,3.66-9.43,3.59-15.41-4.91-1.54-2.2-1.64-3.28.42-5.36,6.32-6.37,4.87-16.23-2.84-20.88A20.2,20.2,0,0,0,570.23,496.72Z" transform="translate(-291.9 -275.37)"/><path class="cls-1" d="M418.79,560.87Q430.17,579,441.57,597.2c6.14,9.79,12.26,19.59,18.46,29.33,4,6.25,10.94,8.34,18,5.47,11.85-4.85,23.84-9.4,35.48-14.72,10.41-4.76,19-1.7,27.14,4.73,7.12,5.63,11.83,13.32,17,20.64,1,1.38.74,2-.9,2.41-3.25.78-5.84.44-8-2.69a50.48,50.48,0,0,0-12-12.79c-6.39-4.61-12.82-5.32-20.12-2-12.55,5.78-25.28,11.18-38,16.59-8.69,3.7-12.14,2.6-17.26-5.31-13.61-21-27-42.1-40.83-63C417.31,571.1,418.31,566.17,418.79,560.87Z" transform="translate(-291.9 -275.37)"/><path class="cls-1" d="M530.23,318.52c1.64,9.85.62,12.33-7.59,16.29-7.88,3.79-15.93,7.23-24,10.57-2.94,1.21-3.92,2.65-2.39,5.56a13.6,13.6,0,0,1,1.18,3.29c1.26,5.5.22,6.71-5.35,6.93-2.9.11-5.77.76-8.67,1-5.15.35-6.52-.77-7-5.92-.46-4.4.86-8.7,1-13.07.09-2.22,2.11-2.27,3.45-2.82q18.17-7.45,36.41-14.72A68.55,68.55,0,0,0,530.23,318.52Z" transform="translate(-291.9 -275.37)"/><path class="cls-2" d="M485.92,365.92,465,375.24c-4.26,1.9-8.68,3.51-12.71,5.81-8.45,4.82-17.84,4.07-27.05,4.93q17.52-8.75,35.05-17.47c2.72-1.36,5.76-.35,8.64-1C474.42,366.16,480.19,366.72,485.92,365.92Z" transform="translate(-291.9 -275.37)"/><path class="cls-2" d="M637.83,564c.4,4-1.49,7-5.28,8.9-2.85,1.46-5.68,3-8.46,4.56-1.72,1-2.82,1.22-4.27-.8-4.57-6.37-4.69-6.27,2.4-9.95,3.62-1.89,7.2-3.84,10.79-5.76C637.84,558.36,637.84,558.36,637.83,564Z" transform="translate(-291.9 -275.37)"/><path class="cls-3" d="M619.17,542.28c-6.88-7-13.89-5.2-20.8-1.93-2.39,1.13-4.07,1-4.88-1.4s1.56-2.24,2.91-2.73c3.78-1.37,7.29-3.63,11.49-3.74C613.76,532.34,617.22,535.09,619.17,542.28Z" transform="translate(-291.9 -275.37)"/><path class="cls-4" d="M644.55,623.25c.25,5.18-2.22,9.41-2.81,14.87l-5.93-8.49c-.92-1.32-.95-2.41.77-3.11C639.13,625.5,641.66,624.44,644.55,623.25Z" transform="translate(-291.9 -275.37)"/><path class="cls-5" d="M566.56,501.41c10.14-1.88,16.26,1.3,18.45,9.33-4.3-3.2-8.69-5.12-13.79-5.25C569,505.43,568.65,503,566.56,501.41Z" transform="translate(-291.9 -275.37)"/><path class="cls-6" d="M436.34,389.24a4.39,4.39,0,0,1,.1.77c-2.78,1.11-1.82,7-6.18,5.46-2.68-1-5-3.16-8.57-4.13,1.13-.56,1.5-.9,1.86-.9C427.81,390.46,431.91,388.83,436.34,389.24Z" transform="translate(-291.9 -275.37)"/><path class="cls-7" d="M329.85,375.12c-5.14-.71-10.44-1-14.5-5-3.48-3.41-3.51-6.42-.12-9.79,6.31-6.25,23.46-6.29,29.7-.06a6.62,6.62,0,0,1-.06,9.72C340.71,374.06,335.29,374.51,329.85,375.12Z" transform="translate(-291.9 -275.37)"/><path class="cls-8" d="M494.21,309.78c-4.84-.32-9.63-.7-13.72-3.72-4.4-3.25-4.6-7.9-.47-11.42,6.61-5.63,21.65-5.6,28.37.06,4,3.4,4.07,7.24.13,10.75C504.41,309.1,499.3,309.44,494.21,309.78Z" transform="translate(-291.9 -275.37)"/><path class="cls-9" d="M584.43,548.45c-.12,1.73-1.5,2.22-2.63,2.75-10.84,5-21.74,9.92-32.57,15-1.8.83-2.58.29-3.52-1.19-4.46-7-9-14-13.55-21-1.38-2.12-.95-3.26,1.46-4.28q16.3-6.91,32.47-14.15c1.57-.7,2.7-.94,3.76.63q7.06,10.58,14.14,21.15A5,5,0,0,1,584.43,548.45Z" transform="translate(-291.9 -275.37)"/><path class="cls-10" d="M567.16,580.59c0-9.33,10-16.76,19.36-15,9.55,1.79,15,7.27,14.9,15.5,0,3.11,2.62,5.14,4.23,7.52,4.87,7.22,4.29,12.73-2.07,17.46S588.42,609.8,584,603.8c-3.88-5.23-7.05-10.89-12.84-14.6A8.89,8.89,0,0,1,567.16,580.59Z" transform="translate(-291.9 -275.37)"/><path class="cls-9" d="M532.5,522.31c-5.7.53-10.62-2.18-15-6-3.9-3.43-4.21-8.65-.83-14.38,5.47-9.27,22.14-10.43,27.59-4.83,4.08,4.19,6.47,10.9,4.71,15.5a15.83,15.83,0,0,1-14.27,9.74Z" transform="translate(-291.9 -275.37)"/><path class="cls-11" d="M451.55,405.36c-.36,2.77-1.24,5.41-4.78,5.53-3.12.11-6.43-4.31-6.42-8.2,0-3.11,1.44-5.06,4.55-5.32C448.29,397.08,451.58,401.1,451.55,405.36Z" transform="translate(-291.9 -275.37)"/><path class="cls-12" d="M458.66,431.41c.23,3.19-1.25,5.08-4.43,5.23-3.39.16-6-3.41-6.1-7.65-.08-3.21,1.44-5.07,4.43-5.36S458.68,427.61,458.66,431.41Z" transform="translate(-291.9 -275.37)"/><path class="cls-13" d="M477.66,614.84c-8.09,0-13.36-4.21-15.16-11.06-1.57-6,1.08-12.82,6.94-15.59a177.53,177.53,0,0,1,21.83-8.7,14.1,14.1,0,0,1,17.44,8.67,14.46,14.46,0,0,1-8,18.6c-6.4,2.79-13,5.18-19.54,7.59A12,12,0,0,1,477.66,614.84Z" transform="translate(-291.9 -275.37)"/><path class="cls-8" d="M443,556.74c0-6.21,3.71-10.61,11.27-13.41s17.15.54,21.21,7.2c2.95,4.85,2.33,10.29-1.7,15-7.9,9.19-24.41,7.08-29.82-3.7A10.81,10.81,0,0,1,443,556.74Z" transform="translate(-291.9 -275.37)"/><path class="cls-4" d="M316.72,366.86c-1.37-2.38,0-3.76,1.54-5,5.19-4.13,17.48-4.33,22.94-.4a9.87,9.87,0,0,1,1.87,1.84c.61.76,1.61,1.61.73,2.65s-1.82.26-2.72-.25c-5.63-3.19-11.54-3.58-17.75-2C320.88,364.31,319.08,366.13,316.72,366.86Z" transform="translate(-291.9 -275.37)"/><path class="cls-14" d="M507.92,300.78c-.13,1.4-1,1.55-2.6.73-7.61-4-15.17-4.3-22.54.58a1.18,1.18,0,0,1-1.82-.19c-.7-.81-1.18-1.64-.49-2.74A7.77,7.77,0,0,1,484,296c7-2.91,14.1-3.1,21,.39C507.44,297.6,508.05,298.68,507.92,300.78Z" transform="translate(-291.9 -275.37)"/><path class="cls-2" d="M548.93,562.49c-1,.18-1.26-.79-1.79-1.46-9-11.32-9-11.32,4.09-17,3.87-1.68,7.75-3.34,11.57-5.11,1.9-.88,3.21-.7,4.29,1.28s2.38,3.69,3.61,5.51c3.61,5.37,3.61,5.34-2.1,7.9s-11.14,5.08-16.71,7.61C551,561.64,550,562,548.93,562.49Z" transform="translate(-291.9 -275.37)"/><path class="cls-15" d="M538.12,546c-1.1.12-1.35-1.06-1.82-1.9-.67-1.21.16-2,1.11-2.45,9.46-4.15,19-8.18,28.42-12.38,2.18-1,2.55.73,3.27,1.8,3.37,5,6.65,10,10,15,.53.8,1.74,1.55.41,2.51s-2.46.63-3.35-.73c-2.17-3.31-4.5-6.51-6.48-9.92s-3.79-4.31-7.65-2.33c-6.86,3.52-14.09,6.3-21.17,9.39C540,545.3,539.2,545.58,538.12,546Z" transform="translate(-291.9 -275.37)"/><path class="cls-2" d="M583.73,591c-1.69-.34-3.57,0-5.41-.87-5.36-2.43-8.91-7.16-8.13-11.2,1-5,6-9.31,11.59-9.73,3-.23,6-.23,9,1.2,5.21,2.53,7.78,6.28,7.15,11.24-.51,4-5.39,8.44-10.08,9.11C586.51,590.89,585.19,590.87,583.73,591Z" transform="translate(-291.9 -275.37)"/><path class="cls-2" d="M581.63,594.7c7.19-.17,13-1.68,17.11-7,.61-.78,1-1,2-.19,5,4.32,6.17,10.75,2.41,14.63-4.87,5-11.47,5-16.21-.19A89.32,89.32,0,0,1,581.63,594.7Z" transform="translate(-291.9 -275.37)"/><path class="cls-16" d="M532.75,496.92c7.38.68,11.67,4.23,11.6,11.48a25.52,25.52,0,0,0,.27,3.91c.11.75.32,1.84-.33,2-4.34.82-6.92,5.61-12,4.9-4.79-.66-8.34-3.13-11.55-6.37-1.61-1.63-1.51-3.78-1.08-5.8C520.52,502.81,528.39,496.85,532.75,496.92Z" transform="translate(-291.9 -275.37)"/><path class="cls-17" d="M445.27,401A6,6,0,0,1,448.1,405c.14,1-.3,1.82-1.4,1.65-2-.31-2.19-2-2.52-3.58A1.72,1.72,0,0,1,445.27,401Z" transform="translate(-291.9 -275.37)"/><path class="cls-18" d="M454,433.21a4.35,4.35,0,0,1-2.48-4.37c0-1,.67-1.84,1.7-1.34,1.58.76,2.07,2.39,2.22,4A1.4,1.4,0,0,1,454,433.21Z" transform="translate(-291.9 -275.37)"/><path class="cls-16" d="M506,591.84c-6.94-6.07-14-4.45-21.32-1.11-6.15,2.82-12.92,4.24-18.76,8.69-.12-4.27,1.86-7,5-8.42,7.2-3.18,14.5-6.15,21.93-8.72C498.34,580.39,503.58,584.21,506,591.84Z" transform="translate(-291.9 -275.37)"/><path class="cls-14" d="M473.46,556.49c-9.33-7.37-18.24-6.59-27.26.31,1.76-7.83,7.46-11.73,15.27-11C468.59,546.51,473.18,550.41,473.46,556.49Z" transform="translate(-291.9 -275.37)"/><path class="cls-11" d="M574.25,581.47c.41-1.82,1.82-2.26,3.33-2,4.19.66,6-.86,5.29-5.17-.16-1-.35-2.64,1.5-2.5,1.34.1,1.49,1.4,1.35,2.38-.62,4.29,1,5.58,5.16,4.4,1.29-.37,3.26-.63,3.22,1.66,0,1.82-1.67,1.81-3,1.71-3.42-.27-6.27,0-5.44,4.68a1.39,1.39,0,0,1-1.62,1.6c-1.23-.11-1.32-1.11-1.19-2,.58-3.93-1.61-3.92-4.46-3.4C576.89,583.13,575.11,583.56,574.25,581.47Z" transform="translate(-291.9 -275.37)"/><path class="cls-19" d="M543,508.18c-.42,1.6-1.65,1.6-2.82,1.65-3.22.15-6.35.33-5.63,5a1.5,1.5,0,0,1-1.58,1.71A1.78,1.78,0,0,1,531,514.6c.61-3.85-1.65-3.74-4.35-3.64-1.38.05-3.7.73-3.65-1.82,0-2.09,2.13-1.81,3.42-1.74,3.82.22,5.43-1.25,4.66-5.14-.26-1.31-.21-2.88,1.59-3,2.36-.2,2,1.78,1.88,3.09-.46,3.57,1,4.7,4.43,4.26C540.48,506.38,542.26,506.29,543,508.18Z" transform="translate(-291.9 -275.37)"/></svg>