<svg id="Capa_1" data-name="Capa 1" xmlns="http://www.w3.org/2000/svg" viewBox="0 0 461.95 306.48"><defs><style>.cls-1{fill:#f9c61f;}.cls-2{fill:#fefefe;}.cls-3{fill:#fefefd;}.cls-4{fill:#fefefc;}</style></defs><title>LOGO 2</title><path class="cls-1" d="M432.36,568.68q69.4,0,138.81.08c4,0,6.36-1.39,7.15-5.18a30.69,30.69,0,0,0,.09-12c-.59-3.11-2.84-4.79-6.6-4.74-16,.22-32.06.1-48.09.09a18.62,18.62,0,0,1-3.74-.15c-5-1.08-9.3-5.41-9-8.92.43-4.33,4.94-7.6,10.69-7.63,7.39-.05,14.78,0,22.16,0h27.18c6,0,7.21-1.16,7.65-7.08,0-.69,0-1.39,0-2.09V361.32c0-5.21-2.27-7.55-7.47-7.56q-31.37,0-62.72,0c-3.23,0-6.4,1.58-9.71.05a11.56,11.56,0,0,1-4.4-2.89c-2.84-3.41-2.33-6.29-.37-10.31,2.12-4.34,4.86-4.46,8.66-4.44,28.16.08,56.31,0,84.46.05,2.83,0,4.8-.28,6.41,3.74a34.75,34.75,0,0,1,2.71,13.48c0,11.29.05,22.58,0,33.87,0,3.43-.72,6.86-.75,10.3-.06,5.33,1,6.33,6.24,6.34,13,0,25.94.43,38.88-.11,14.56-.61,24.36,7.35,33.13,17.22A102.12,102.12,0,0,1,685,436.18c4.19,7,8.22,14.06,11.7,21.43,1.22,2.58,2.29,5.2,3.77,7.7,4.53,7.63-1,13.53-7.62,14.64-2.91.48-6,.08-8.94.08-16.59,0-33.18.06-49.76-.06-2.54,0-5,.67-7.63.19-6.35-1.14-10.16-5.14-10.16-11.61q0-20.07,0-40.14c0-4.94-1.14-6.05-6.08-6.08q-4,0-7.95,0c-5.46,0-8,2.89-6.72,8.2a30.41,30.41,0,0,1,.66,7.38q0,56.23,0,112.48a38.94,38.94,0,0,1-.68,8.64c-1.31,5.92,1.33,8.82,7.28,8.82H705.72c6.15,0,8.81-3,7.55-9-1.54-7.31-.49-14.67-.65-22-.07-3.36,4.87-8.9,8-9.8,4.38-1.26,10.3,4.19,10.33,9.62.05,10.45,0,20.9,0,31.36,0,10-.36,20.08.14,30.09.29,5.79-1.78,10.29-5.15,14.42-6.62,8.12-14.91,12.79-25.79,12.27-5.69-.27-11.72-1.28-16,4.39-1.53,2.05-3.62,3.67-5.44,5.52-5.16,5.26-11,8.72-18.79,7.66-3.15-.42-6.4,0-9.61-.07-4.29,0-8.26.54-11.84-3.78-2.89-3.48-8.33-4.9-11-9-4.26-6.62-10.39-7.39-17.53-7.37-55.05.17-110.1.1-165.16.07-5.65,0-10.08,1.44-13.53,6.64a21.94,21.94,0,0,1-8,7.26c-2.35,1.22-5.47,1.82-6.36,5.16-.33,1.23-1.81,1-2.92,1-7,0-13.94,0-20.91,0-.85,0-2.28.5-2.39-.9-.28-3.52-3.06-4-5.51-5.18a21.75,21.75,0,0,1-4.59-3.47c-3.89-3.37-9.39-3.26-12.32.76-1.64,2.26-4.32,2.06-6.17,3.7-1.38,1.22-3.64,1.45-3.41,4.05.08.9-.75,1.07-1.46,1-8.16-.38-16.47,1.31-24.44-.93-3.18-.89-5.81-3.74-8.7-5.7a7.9,7.9,0,0,0-4.46-1.57c-3.5-.12-4.57-3.7-5.78-6.07a5.08,5.08,0,0,0-5.09-3.22c-5.56,0-11.12.24-16.68.15-2.41,0-5.23.48-6.33-2.92-.71-2.21-3.41-1.36-5.14-3.11-3.91-4-5.18-10.09-10.56-12.66-.85-.4-.72-1.08-.74-1.73-.05-1.11,0-2.23,0-3.34q0-129.19-.16-258.4c0-4.78,1.67-6.21,5.71-6.51,1-.07,2,0,2.92,0q72.54,0,145.09,0c1.38,0,3.9,0,3.95.31.6,3.55,4,5.62,4.63,9,.47,2.64-4.83,7.53-7.79,8.33-3.21.87-6.2-.16-9.29-.16q-59.79.1-119.58.05c-6.77,0-7.92,1.16-7.92,7.9V522.2c0,6.94,1,8,7.8,8q24.47,0,48.92,0c3.2,0,6.42.42,8.44,3.27,1.41,2,3.48,3.83,1.77,7a11.41,11.41,0,0,1-9.81,6.39c-5.14.3-10.31.08-15.47.08q-17.78,0-35.54,0c-4.26,0-6,1.66-6.1,5.94-.08,3.2-.06,6.41,0,9.61.09,4.53,1.78,6.19,6.27,6.19Q362.75,568.7,432.36,568.68Z" transform="translate(-269.13 -336.05)"/><path class="cls-1" d="M730.92,497.93c0,5.8-5.42,11.43-10.85,11.27-4.14-.13-11-6.78-10.73-10.84.3-5.46,7-11.58,11-11.63C725.28,486.67,730.92,492.64,730.92,497.93Z" transform="translate(-269.13 -336.05)"/><path class="cls-1" d="M461.41,356.26c-4.51,0-11.78-6.72-11.28-10.85.35-2.91,2.19-5.8,3.84-7.83s5.55-1.51,8.61-1.42c5.11.15,10.6,4.83,10.76,9.43C473.48,349.74,466.18,356.27,461.41,356.26Z" transform="translate(-269.13 -336.05)"/><path class="cls-2" d="M529.36,586.25h84.85c5.23,0,7,2.69,4.86,7.67a51.48,51.48,0,0,0-3,8.51c-.61,2.57-2.38,3.94-5.49,3.94q-80.87-.15-161.75,0c-3.29,0-5.76-1.23-6.82-4.28a82.9,82.9,0,0,1-2.89-10.62c-.79-3.88.84-5.29,5-5.26,24.94.18,49.88.1,74.82.1Z" transform="translate(-269.13 -336.05)"/><path class="cls-2" d="M366.24,606c.16,10.17-9.35,20.35-20.47,20s-20.12-8-20.07-20.62c0-12.12,10-19.85,20.49-19.79C357,585.68,366.45,595.27,366.24,606Z" transform="translate(-269.13 -336.05)"/><path class="cls-2" d="M403.85,586.25c12.24.31,19.48,8.27,20,19.62.49,10.64-9.15,19.81-20.06,19.62-12.16-.22-19.76-7.66-19.8-20.06C384,594.28,392.32,586.1,403.85,586.25Z" transform="translate(-269.13 -336.05)"/><path class="cls-2" d="M674.05,606.09c1.52,10.54-9.27,19.42-19.5,19.48-11,.08-19.92-9.27-20-20.23-.06-8.42,8.83-19.62,20.18-19.22C664.77,586.47,675.56,594.84,674.05,606.09Z" transform="translate(-269.13 -336.05)"/><path class="cls-3" d="M655.9,461.63c-5.56,0-11.12-.06-16.68,0-3.17,0-4.49-1.42-4.48-4.54,0-10,.12-20,0-30-.05-3.07,1.45-4.32,4-4.66,8.5-1.09,15,2,20.46,8.71a148.92,148.92,0,0,1,16.24,24.17c2.47,4.69,1.45,6.31-3.69,6.33Z" transform="translate(-269.13 -336.05)"/><path class="cls-4" d="M700.43,585.51c2.23,0,4.46.14,6.67,0,3.65-.28,5.51,1.58,6,4.91,1.92,13.16-5.8,17.35-16.58,16.45-3.47-.29-4.3-3.33-4.59-6.11a19.8,19.8,0,0,0-2.33-7.43c-2.57-4.84-.76-7.74,4.58-7.75h6.25Z" transform="translate(-269.13 -336.05)"/><path class="cls-3" d="M300.64,606.26c-13,.77-14.72-8.9-12.65-17.53a4.35,4.35,0,0,1,5.58-3.16c4.12,1.08,8.28.57,12.42.66,5,.11,6.58,2,4.75,6.75a41.42,41.42,0,0,0-2.48,9.1C307.59,606.7,303.75,606.6,300.64,606.26Z" transform="translate(-269.13 -336.05)"/></svg>