<svg id="Capa_1" data-name="Capa 1" xmlns="http://www.w3.org/2000/svg" viewBox="0 0 283.24 368.82"><defs><style>.cls-1{fill:#fba61f;}.cls-2{fill:#fefefe;}.cls-3{fill:#fefefd;}.cls-4{fill:#fefdfc;}.cls-5{fill:#fefdfb;}.cls-6{fill:#fefdfa;}.cls-7{fill:#fefbf7;}.cls-8{fill:#fba926;}.cls-9{fill:#fba822;}.cls-10{fill:#fefbf5;}</style></defs><title>LOGO 6</title><path class="cls-1" d="M491,649.5c-16.59,0-33.19-.24-49.78.08-11.63.22-21.16-4.52-29.64-11.64-11.16-9.38-19.37-21.14-25.39-34.35-1.73-3.81-3.74-5.42-8.06-5.14-6.61.42-13.33-.46-19.89.23C345.5,600,335.34,586,341.06,572.5c5.62-13.27,8.62-27.38,11.61-41.5,3-14.32,4.19-28.79,5.79-43.25a28,28,0,0,0,.08-3.89c-.43-18.43.88-36.81,1.91-55.17.73-13.07,3.1-26,5.36-39A238.79,238.79,0,0,1,372.57,361c6.71-21.94,15.26-43.12,30.75-60.65,8.29-9.38,18-16.79,30.68-19.14a28.46,28.46,0,0,1,5.14-.43q51.3,0,102.6-.05c11,0,20.27,4.54,28.4,11.38,13.44,11.28,22.21,25.93,29.19,41.83a241.36,241.36,0,0,1,14.09,42.89c3.24,14.06,5.05,28.34,6.93,42.64,2.82,21.38,2.4,42.76,2.12,64.16-.19,14.36-2,28.64-4,42.89a271,271,0,0,1-5.62,29.81c-6.46,25.24-14.92,49.79-31.49,70.47-8.35,10.42-18.5,18.76-32,22a28.32,28.32,0,0,1-6.83.6C525.35,649.52,508.18,649.5,491,649.5Z" transform="translate(-339.43 -280.77)"/><path class="cls-2" d="M598.43,467.19c.34,14.07-.81,29.56-2.63,45-3.48,29.55-9.81,58.37-23.58,85.07-4.44,8.61-9.86,16.6-17.56,22.77-8.75,7-18,7.27-26.84.35-10.52-8.22-16.9-19.51-22.2-31.42-10-22.5-15.48-46.23-18.72-70.55a379.26,379.26,0,0,1-3.45-66.32c1.42-33.4,5.52-66.43,17.1-98.1,5.53-15.09,12.13-29.59,23.8-41.13,10.75-10.62,22.21-10.71,33-.16,11.62,11.35,18.19,25.69,23.77,40.62,6.61,17.73,10.74,36.08,13.43,54.73,1.37,9.51,2.45,19.09,3,28.73S598.53,456,598.43,467.19Z" transform="translate(-339.43 -280.77)"/><path class="cls-2" d="M396.75,367.85c1.8,6.34,3.25,12.27,5.17,18,2.92,8.74,6.44,17.25,12.17,24.61,8.55,11,21.54,11.74,29.34,1.57,2.93-3.82,4.33-8.38,5.23-13.09,2.13-11.13-1.57-21.33-5.06-31.52-3-8.72-6.37-17.26-12.57-24.37-5-5.79-11-9.19-18.93-8.24-2.54.31-3.18-.29-1.84-2.75,4.11-7.51,8.89-14.47,15.2-20.33,1.62-1.5,2.71-1.86,3.91.44,8.51,16.36,20.27,30.81,28.3,47.46,6.29,13.06,9.36,26.57,4.8,40.91-2.66,8.41-8,15.2-13.36,22-3.71,4.77-7.44,9.55-11,14.42-8.44,11.51-10.36,24.19-7.4,38.08,2.66,12.51,6.12,24.85,7.86,37.54a57.81,57.81,0,0,1-5.11,33.67,165.91,165.91,0,0,0-9.25,24.14c-1,3.26-2.55,4.51-6.12,4.36-7.63-.32-15.29-.09-22.94-.12-1.09,0-2.62.51-3.06-.81-.22-.66.69-1.78,1.26-2.58,6.1-8.56,12.18-17.15,18.37-25.65,9.53-13.06,13.83-27.24,10-43.4-3.06-12.83-3-26-3.67-39.05-.73-14-2.36-27.86-10-40.16a57.35,57.35,0,0,0-6.32-8.72c-10.09-11-14.46-23.17-8.22-37.69C394.65,374,394.42,370.77,396.75,367.85Z" transform="translate(-339.43 -280.77)"/><path class="cls-2" d="M388.87,402c5.28,11.29,15.81,19,20.11,31,4.47,12.4,5.12,25.3,5.66,38.22a246,246,0,0,0,4.06,36,39.56,39.56,0,0,1-4.39,27.58C406.56,548.28,396,559.87,387.66,573a3.85,3.85,0,0,1-3.7,1.71c-4.91-.05-9.82-.14-14.72,0-2.86.1-3-.93-2.2-3.3a273.86,273.86,0,0,0,10.69-42.21c1-5.5,1.81-11,2.52-16.6.32-2.52,1-3.66,4-3.72,14.94-.28,23.2-8.91,23.73-23.85.91-25.22-7.83-47.91-18-70.24C387.3,409.14,387.16,409.21,388.87,402Z" transform="translate(-339.43 -280.77)"/><path class="cls-2" d="M460.54,415.12c.45,4.26.6,8.29-1.16,12.25-6,13.43-10.83,27.21-11.77,42.07-.6,9.33,1.08,18.29,6.23,26,4,6,3,12.05,2.25,18.14a381.63,381.63,0,0,1-10.84,55.82c-1.12,4-2.67,5.94-7,5.34a43,43,0,0,0-7.78,0c-2.52.1-2.81-.59-1.93-3,3-8.1,5.72-16.29,9.45-24.09,7-14.63,6.4-29.79,3.11-45.15-2.16-10.12-4.7-20.14-6.55-30.33-2.05-11.28-.17-21.56,6.38-30.8C447.24,432.44,454,423.85,460.54,415.12Z" transform="translate(-339.43 -280.77)"/><path class="cls-2" d="M445.38,392.52c.09,6.77-1.4,13-5.82,18.13-5.34,6.23-13.32,6.52-19.42,1s-9.27-12.74-12.25-20.07a141.77,141.77,0,0,1-8.19-29.83c-.44-2.57-.56-5,.7-7.54s1.91-5.11,3-7.62c3.5-8.33,11.52-10.76,19.39-5.95a21.49,21.49,0,0,1,6.59,6.14C438.79,360.6,443.49,376.08,445.38,392.52Z" transform="translate(-339.43 -280.77)"/><path class="cls-2" d="M468,375.75c-2.15-6-4.09-12-6.89-17.65-6.62-13.33-15.61-25.21-23.1-38-2-3.35-3.81-6.79-5.93-10.05-1.13-1.74-.5-2.56,1-3.39,3.72-2.1,7.77-1.9,11.81-1.76,1.71.06,2,1.59,2.35,2.75a71.91,71.91,0,0,0,7.54,16c7.16,11.82,11.26,24.89,15.94,37.71C472.52,366.36,469.42,371,468,375.75Z" transform="translate(-339.43 -280.77)"/><path class="cls-3" d="M386.71,418.51c5.44,8.94,8.94,18.47,11.93,28.19,3.88,12.57,6.7,25.31,5.74,38.61-.37,5.13-1.73,9.91-5.11,13.9-4.34,5.11-10.24,5.92-16.46,5.77-1.39,0-1.7-.69-1.31-2a8.84,8.84,0,0,0,.31-2.13c.2-2.87-.55-6.31.79-8.47,1.65-2.68,5.21-.06,8-.5,4.48-.7,7.71-3.66,8.72-8.85,1.27-6.54-.46-12.89-1.51-19.23a101.1,101.1,0,0,0-11.45-33.26C384.12,426.64,385.82,422.57,386.71,418.51Z" transform="translate(-339.43 -280.77)"/><path class="cls-2" d="M470.91,304.86c5.53-1.86,8.18,1.57,10.54,7.29,5.05,12.25,5.09,17-1.78,28-1.08,1.72-1.92,1.35-2.78-.13a165.33,165.33,0,0,1-14.54-32.48c-.69-2.16.25-2.84,2.33-2.71C466.4,305,468.13,304.86,470.91,304.86Z" transform="translate(-339.43 -280.77)"/><path class="cls-2" d="M384.58,437.46c2.13.36,2.41,1.79,2.85,2.9,5.09,12.76,8.43,25.91,8.34,39.75,0,6.19-5.37,9.49-11.11,7.05a2.55,2.55,0,0,1-1.84-2.93C384.15,468.76,382.68,453.17,384.58,437.46Z" transform="translate(-339.43 -280.77)"/><path class="cls-2" d="M416.29,599.2c3.35-.24,5.74-.11,8,1.07,1.88,1,3.58.77,5.62-.38,5-2.86,8.55-.87,9.06,4.86.3,3.42,1.44,6.72,1.13,10.23-.26,2.95-1.48,4.54-4.63,4.25-6.82-.63-12.9-2.76-17.24-8.42a63.93,63.93,0,0,1-4.22-6c-1-1.64-3.33-3.34-2.17-5.19C412.77,598.18,415.37,599.43,416.29,599.2Z" transform="translate(-339.43 -280.77)"/><path class="cls-4" d="M471.21,567.44c3.46,6.06,3.74,10.52-.86,15.17-3.41,3.44-5.2,8.25-8.28,12.18-3.75,4.8-2.64,11-1.8,16.68.5,3.4,1.61,6.71,2.09,10.11.16,1.11,2.09,3.62-.9,3.54-2.4-.07-6,2.22-7.13-2.25s-.29-8.9-1.11-13.29c-.24-1.27-.1-2.59-.25-3.87-.54-4.68-.61-8.54,4.87-11.22s8-8.58,9.67-14.45C468.65,576.08,469.83,572.13,471.21,567.44Z" transform="translate(-339.43 -280.77)"/><path class="cls-2" d="M482.12,625.28c-4.65,1.53-6.38-1.88-7.9-6-3-8.2-1.4-16.13,1.18-24,.71-2.16.41-6,2.88-6,2.25,0,2,4,3.31,6a5.37,5.37,0,0,1,.62,4.18c-1.41,7.43.76,14.18,3.85,20.75C488.49,625.3,488.53,625.28,482.12,625.28Z" transform="translate(-339.43 -280.77)"/><path class="cls-3" d="M462.3,605c-.29-6,2.82-10.72,6-15.36,1.54-2.26,3.34-4.34,5.05-6.48.67-.83,1.17-2.57,2.45-1.79a3,3,0,0,1,1,3.84c-1.16,2.78-2.24,5.6-3.22,8.44-3.38,9.71-5.25,19.44-.27,29.23.84,1.66.27,2.23-1.53,2.43-5.16.59-5.79.12-6.84-5S462.46,610.21,462.3,605Z" transform="translate(-339.43 -280.77)"/><path class="cls-4" d="M472.67,356.09c-1.9-5.17-3.83-10.34-5.69-15.53-3.6-10.06-9.75-18.84-14.22-28.46-.36-.78-1.08-1.55-1.08-2.32,0-1.64-2.82-3.32-.42-4.78,2.56-1.56,6.47.21,7.29,2.9a143.61,143.61,0,0,0,17.2,36.87c2.78,4.28-1.5,7.45-2,11.27Z" transform="translate(-339.43 -280.77)"/><path class="cls-5" d="M457.54,494.2c-8.61-15.48-7.82-39.78,1.86-55C458.25,457.93,459.42,475.55,457.54,494.2Z" transform="translate(-339.43 -280.77)"/><path class="cls-6" d="M447.57,615.23c-.82-4.69-.69-9.07-2.18-13.18-.7-2-.22-2.84,1.95-3.16,1.94-.29,2.89-.13,3,2.16.47,7.29,1.09,14.57,1.73,21.85.3,3.42-2.2,2.16-3.78,2.37-2.32.29-2.59-.87-2.1-2.86C446.85,619.92,447.18,617.35,447.57,615.23Z" transform="translate(-339.43 -280.77)"/><path class="cls-5" d="M498.31,624.68c-4.95,1.71-7.62,0-9.53-3.84-2.35-4.78-4.45-9.59-4.77-15-.05-.78-.5-1.83.73-2.11.95-.21,1.09.72,1.41,1.31A165.9,165.9,0,0,0,498.31,624.68Z" transform="translate(-339.43 -280.77)"/><path class="cls-7" d="M430.66,621.75c10.77.56,12.71-1.67,11.06-12.41a57.59,57.59,0,0,0-1.48-8c-.26-.83-.43-1.74.77-2a1.5,1.5,0,0,1,1.94,1.22c1.85,7.4,3.65,14.8.95,22.4a3.28,3.28,0,0,1-3.56,2.43A15.51,15.51,0,0,1,430.66,621.75Z" transform="translate(-339.43 -280.77)"/><path class="cls-5" d="M488.94,320.15c-2.23-4.91-4.19-9.18-6.09-13.48a2.79,2.79,0,0,1,0-1.5c3-.41,6.37-1.3,8.76.3,1.87,1.25,4.05,3.9,2,7C492.14,314.78,490.79,317.12,488.94,320.15Z" transform="translate(-339.43 -280.77)"/><path class="cls-1" d="M575.91,465.64c.25,20.53-1.43,40.84-9.69,60a40.43,40.43,0,0,1-9.9,14c-8.41,7.72-18.57,8-27.36.77-8-6.56-11.61-15.61-14.48-25-6.75-22.11-7.3-44.92-5.89-67.65,1-16,3.78-32,11.49-46.56,3.81-7.2,8.72-13.42,17-15.6,10.23-2.69,19.51,2.18,25.8,12.72,6,10.07,8.81,21.19,10.84,32.54a153.88,153.88,0,0,1,2.12,17.53C576.19,454.1,575.91,459.88,575.91,465.64Z" transform="translate(-339.43 -280.77)"/><path class="cls-8" d="M380.41,536.18c-.05-5.5,7.32-11.48,12.69-10.31,4.15.91,5.61,4.25,3.26,7.82a16.83,16.83,0,0,1-10.06,7A4.62,4.62,0,0,1,380.41,536.18Z" transform="translate(-339.43 -280.77)"/><path class="cls-9" d="M413,370.26c0-4.08.34-7,3.25-8.2s5,.71,6.84,2.57a45.06,45.06,0,0,1,12,21.61,11.35,11.35,0,0,1,.29,4.7c-.6,3.21-2,6.13-5.39,7.25s-5.51-1-7.33-3.32C416.69,387.31,414.21,378.4,413,370.26Z" transform="translate(-339.43 -280.77)"/><path class="cls-2" d="M542.66,412.18c4.5,9.29,6.55,18.77,7.63,28.5,2.54,22.89,2.54,45.65-3.87,68-.63,2.2-1.6,4.3-2.4,6.45-.38,1-.46,2.58-1.9,2.45-1.26-.12-1.42-1.62-1.82-2.65-4.75-12.2-6.61-25-7.28-37.94-1-19.92-.18-39.68,6.36-58.8C540.06,416.25,540.4,414,542.66,412.18Z" transform="translate(-339.43 -280.77)"/><path class="cls-10" d="M393.85,531c-.68,2.06-2.45,3.36-4.2,4.53-1.37.92-2.84,2.33-4.63,1.74-1.08-.35-.88-1.79-.38-2.67,1.61-2.86,3.75-5.11,7.35-5.16A1.62,1.62,0,0,1,393.85,531Z" transform="translate(-339.43 -280.77)"/><path class="cls-4" d="M431.89,389.07c-.25,2.29-.32,4.29-2.53,5-2,.64-3.24-.71-4.27-2.18-4.9-7-7.33-14.9-8.31-23.3-.13-1.09-.28-2.45,1.07-3,.9-.36,1.64.27,2.28.89A40.4,40.4,0,0,1,431.89,389.07Z" transform="translate(-339.43 -280.77)"/></svg>